<svg xmlns="http://www.w3.org/2000/svg" xmlns:xlink="http://www.w3.org/1999/xlink" version="1.1" x="0px" y="0px" viewBox="0 0 60 75" style="enable-background:new 0 0 60 60;" xml:space="preserve"><g><path d="M30,60C13.458,60,0,46.542,0,30S13.458,0,30,0s30,13.458,30,30S46.542,60,30,60z M30,2C14.561,2,2,14.561,2,30   s12.561,28,28,28s28-12.561,28-28S45.439,2,30,2z"/><path d="M17,17h-6c-0.552,0-1-0.448-1-1s0.448-1,1-1h6c0.552,0,1,0.448,1,1S17.552,17,17,17z"/><path d="M10,22H8c-0.552,0-1-0.448-1-1s0.448-1,1-1h2c0.552,0,1,0.448,1,1S10.552,22,10,22z"/><path d="M53,22h-2c-0.552,0-1-0.448-1-1s0.448-1,1-1h2c0.552,0,1,0.448,1,1S53.552,22,53,22z"/><path d="M54,28h-4c-0.552,0-1-0.448-1-1s0.448-1,1-1h4c0.552,0,1,0.448,1,1S54.552,28,54,28z"/><path d="M49,17h-6c-0.552,0-1-0.448-1-1s0.448-1,1-1h6c0.552,0,1,0.448,1,1S49.552,17,49,17z"/><path d="M37,17H23c-0.552,0-1-0.448-1-1s0.448-1,1-1h14c0.552,0,1,0.448,1,1S37.552,17,37,17z"/><path d="M37,7H23c-0.552,0-1-0.448-1-1s0.448-1,1-1h14c0.552,0,1,0.448,1,1S37.552,7,37,7z"/><path d="M45,12h-9c-0.552,0-1-0.448-1-1s0.448-1,1-1h9c0.552,0,1,0.448,1,1S45.552,12,45,12z"/><path d="M31,12H16c-0.552,0-1-0.448-1-1s0.448-1,1-1h15c0.552,0,1,0.448,1,1S31.552,12,31,12z"/><path d="M25,22h-9c-0.552,0-1-0.448-1-1s0.448-1,1-1h9c0.552,0,1,0.448,1,1S25.552,22,25,22z"/><path d="M45,22H30c-0.552,0-1-0.448-1-1s0.448-1,1-1h15c0.552,0,1,0.448,1,1S45.552,22,45,22z"/><path d="M13,28H6c-0.552,0-1-0.448-1-1s0.448-1,1-1h7c0.552,0,1,0.448,1,1S13.552,28,13,28z"/><path d="M45,28h-6c-0.552,0-1-0.448-1-1s0.448-1,1-1h6c0.552,0,1,0.448,1,1S45.552,28,45,28z"/><path d="M33,28H19c-0.552,0-1-0.448-1-1s0.448-1,1-1h14c0.552,0,1,0.448,1,1S33.552,28,33,28z"/><path d="M49,45h-6c-0.552,0-1-0.448-1-1s0.448-1,1-1h6c0.552,0,1,0.448,1,1S49.552,45,49,45z"/><path d="M52,40h-2c-0.552,0-1-0.448-1-1s0.448-1,1-1h2c0.552,0,1,0.448,1,1S52.552,40,52,40z"/><path d="M9,40H7c-0.552,0-1-0.448-1-1s0.448-1,1-1h2c0.552,0,1,0.448,1,1S9.552,40,9,40z"/><path d="M10,34H6c-0.552,0-1-0.448-1-1s0.448-1,1-1h4c0.552,0,1,0.448,1,1S10.552,34,10,34z"/><path d="M17,45h-6c-0.552,0-1-0.448-1-1s0.448-1,1-1h6c0.552,0,1,0.448,1,1S17.552,45,17,45z"/><path d="M37,45H23c-0.552,0-1-0.448-1-1s0.448-1,1-1h14c0.552,0,1,0.448,1,1S37.552,45,37,45z"/><path d="M37,55H23c-0.552,0-1-0.448-1-1s0.448-1,1-1h14c0.552,0,1,0.448,1,1S37.552,55,37,55z"/><path d="M24,50h-9c-0.552,0-1-0.448-1-1s0.448-1,1-1h9c0.552,0,1,0.448,1,1S24.552,50,24,50z"/><path d="M44,50H29c-0.552,0-1-0.448-1-1s0.448-1,1-1h15c0.552,0,1,0.448,1,1S44.552,50,44,50z"/><path d="M44,40h-9c-0.552,0-1-0.448-1-1s0.448-1,1-1h9c0.552,0,1,0.448,1,1S44.552,40,44,40z"/><path d="M30,40H15c-0.552,0-1-0.448-1-1s0.448-1,1-1h15c0.552,0,1,0.448,1,1S30.552,40,30,40z"/><path d="M54,34h-7c-0.552,0-1-0.448-1-1s0.448-1,1-1h7c0.552,0,1,0.448,1,1S54.552,34,54,34z"/><path d="M21,34h-6c-0.552,0-1-0.448-1-1s0.448-1,1-1h6c0.552,0,1,0.448,1,1S21.552,34,21,34z"/><path d="M41,34H27c-0.552,0-1-0.448-1-1s0.448-1,1-1h14c0.552,0,1,0.448,1,1S41.552,34,41,34z"/></g></svg>