<svg xmlns="http://www.w3.org/2000/svg" xmlns:xlink="http://www.w3.org/1999/xlink" version="1.1" x="0px" y="0px" viewBox="0 0 59.46 74.76875" style="enable-background:new 0 0 59.46 59.815;" xml:space="preserve"><g><path d="M9.987,14.946c-3.309,0-6-2.691-6-6s2.691-6,6-6s6,2.691,6,6S13.295,14.946,9.987,14.946z M9.987,4.946   c-2.206,0-4,1.794-4,4s1.794,4,4,4s4-1.794,4-4S12.192,4.946,9.987,4.946z"/><path d="M35.987,14.946c-2.206,0-4-1.794-4-4s1.794-4,4-4s4,1.794,4,4S38.192,14.946,35.987,14.946z M35.987,8.946   c-1.103,0-2,0.897-2,2s0.897,2,2,2s2-0.897,2-2S37.09,8.946,35.987,8.946z"/><path d="M23.987,52.946c-2.206,0-4-1.794-4-4s1.794-4,4-4s4,1.794,4,4S26.192,52.946,23.987,52.946z M23.987,46.946   c-1.103,0-2,0.897-2,2s0.897,2,2,2s2-0.897,2-2S25.09,46.946,23.987,46.946z"/><path d="M49.987,56.946c-3.309,0-6-2.691-6-6s2.691-6,6-6s6,2.691,6,6S53.295,56.946,49.987,56.946z M49.987,46.946   c-2.206,0-4,1.794-4,4s1.794,4,4,4s4-1.794,4-4S52.192,46.946,49.987,46.946z"/><path d="M29.987,36.946c-3.86,0-7-3.14-7-7s3.14-7,7-7s7,3.14,7,7S33.847,36.946,29.987,36.946z M29.987,24.946   c-2.757,0-5,2.243-5,5s2.243,5,5,5s5-2.243,5-5S32.744,24.946,29.987,24.946z"/><path d="M29.987,24.946c-0.552,0-1-0.448-1-1v-4c0-0.552,0.448-1,1-1s1,0.448,1,1v4C30.987,24.498,30.539,24.946,29.987,24.946z"/><path d="M49.896,10.052c-0.254,0-0.509-0.097-0.704-0.29c-7.455-7.396-19.205-9.791-29.241-5.961   c-0.514,0.197-1.094-0.061-1.291-0.578c-0.197-0.516,0.062-1.094,0.578-1.291c10.758-4.106,23.361-1.529,31.362,6.409   c0.392,0.389,0.395,1.022,0.006,1.414C50.411,9.953,50.154,10.052,49.896,10.052z"/><path d="M58.458,27.811c-0.499,0-0.931-0.374-0.992-0.881c-0.593-4.972-2.435-9.717-5.326-13.722   c-0.324-0.448-0.223-1.073,0.225-1.396c0.449-0.322,1.073-0.221,1.396,0.226c3.089,4.28,5.057,9.348,5.691,14.656   c0.065,0.548-0.326,1.046-0.875,1.112C58.538,27.809,58.498,27.811,58.458,27.811z"/><path d="M55.495,44.664c-0.155,0-0.313-0.036-0.46-0.113c-0.49-0.254-0.681-0.858-0.426-1.349c1.419-2.729,2.358-5.67,2.791-8.741   c0.077-0.547,0.588-0.927,1.13-0.851c0.547,0.077,0.928,0.583,0.851,1.13c-0.464,3.295-1.473,6.453-2.997,9.384   C56.205,44.468,55.856,44.664,55.495,44.664z"/><path d="M38.47,58.633c-0.432,0-0.83-0.282-0.958-0.717c-0.157-0.529,0.146-1.085,0.676-1.242c2.632-0.778,5.107-1.938,7.357-3.447   c0.458-0.309,1.08-0.186,1.388,0.273c0.308,0.458,0.185,1.08-0.273,1.388c-2.418,1.622-5.078,2.868-7.905,3.704   C38.659,58.619,38.563,58.633,38.47,58.633z"/><path d="M30.282,59.815c-3.905,0-7.838-0.761-11.441-2.22c-0.512-0.207-0.759-0.79-0.552-1.302   c0.207-0.512,0.792-0.759,1.302-0.552c3.673,1.487,7.715,2.202,11.689,2.055c0.567-0.021,1.016,0.412,1.035,0.964   s-0.412,1.015-0.964,1.035C30.996,59.809,30.639,59.815,30.282,59.815z"/><path d="M13.605,54.651c-0.195,0-0.392-0.057-0.564-0.175c-3.592-2.462-6.656-5.74-8.861-9.478   c-0.281-0.476-0.123-1.088,0.354-1.369c0.475-0.282,1.089-0.122,1.369,0.354c2.057,3.488,4.917,6.546,8.269,8.844   c0.456,0.312,0.572,0.935,0.259,1.39C14.237,54.499,13.924,54.651,13.605,54.651z"/><path d="M2.241,39.148c-0.428,0-0.824-0.278-0.956-0.708c-1.196-3.921-1.567-8.139-1.072-12.198   c0.067-0.549,0.567-0.939,1.114-0.872c0.548,0.067,0.938,0.565,0.872,1.114c-0.462,3.784-0.116,7.716,1,11.372   c0.161,0.528-0.136,1.087-0.665,1.249C2.436,39.134,2.338,39.148,2.241,39.148z"/><path d="M2.684,21.153c-0.112,0-0.226-0.019-0.338-0.059c-0.52-0.187-0.79-0.759-0.604-1.279c0.992-2.765,2.387-5.367,4.145-7.733   c0.33-0.442,0.956-0.536,1.399-0.207c0.443,0.329,0.536,0.956,0.207,1.399c-1.641,2.208-2.941,4.637-3.867,7.216   C3.478,20.898,3.094,21.153,2.684,21.153z"/><path d="M46.526,41.926c-0.181,0-0.364-0.049-0.529-0.152c-0.468-0.293-0.61-0.91-0.318-1.378   c5.178-8.281,3.421-19.429-3.999-25.378c-0.431-0.346-0.5-0.975-0.155-1.406c0.346-0.431,0.975-0.5,1.406-0.155   c8.199,6.573,10.151,18.872,4.444,28C47.185,41.76,46.86,41.926,46.526,41.926z"/><path d="M34.307,50.477c-0.459,0-0.872-0.317-0.976-0.784c-0.119-0.539,0.221-1.073,0.761-1.192   c2.794-0.618,5.399-1.845,7.535-3.55c0.433-0.344,1.061-0.273,1.406,0.158c0.344,0.432,0.274,1.061-0.158,1.406   c-2.373,1.894-5.26,3.256-8.351,3.939C34.451,50.47,34.378,50.477,34.307,50.477z"/><path d="M21.188,48.886c-0.148,0-0.299-0.033-0.441-0.103c-3.014-1.485-5.651-3.741-7.627-6.524   c-0.32-0.451-0.214-1.075,0.236-1.395c0.451-0.319,1.075-0.214,1.395,0.236c1.784,2.514,4.164,4.55,6.88,5.889   c0.496,0.244,0.699,0.844,0.455,1.339C21.912,48.681,21.557,48.886,21.188,48.886z"/><path d="M11.086,36.853c-0.429,0-0.826-0.279-0.957-0.711c-0.873-2.883-1.141-5.983-0.775-8.965   c0.067-0.548,0.577-0.934,1.114-0.871c0.548,0.067,0.938,0.566,0.871,1.114c-0.332,2.708-0.088,5.524,0.704,8.143   c0.16,0.528-0.139,1.086-0.667,1.247C11.28,36.839,11.182,36.853,11.086,36.853z"/><path d="M12.23,21.924c-0.147,0-0.296-0.032-0.438-0.101c-0.497-0.242-0.703-0.841-0.46-1.337c1.715-3.514,4.404-6.456,7.776-8.506   c0.473-0.286,1.087-0.136,1.374,0.335c0.287,0.472,0.137,1.087-0.335,1.374c-3.045,1.851-5.472,4.504-7.018,7.674   C12.957,21.717,12.601,21.924,12.23,21.924z"/><path d="M25.203,11.521c-0.45,0-0.858-0.305-0.97-0.762c-0.131-0.537,0.197-1.078,0.733-1.209c2.715-0.666,5.502-0.776,8.283-0.327   c0.545,0.088,0.916,0.602,0.828,1.146c-0.088,0.545-0.607,0.918-1.146,0.828c-2.515-0.406-5.034-0.308-7.487,0.295   C25.362,11.512,25.282,11.521,25.203,11.521z"/><path d="M29.987,20.946c-0.256,0-0.512-0.098-0.707-0.293l-2-2c-0.391-0.391-0.391-1.023,0-1.414s1.023-0.391,1.414,0l2,2   c0.391,0.391,0.391,1.023,0,1.414C30.498,20.848,30.243,20.946,29.987,20.946z"/><path d="M29.987,20.946c-0.256,0-0.512-0.098-0.707-0.293c-0.391-0.391-0.391-1.023,0-1.414l2-2c0.391-0.391,1.023-0.391,1.414,0   s0.391,1.023,0,1.414l-2,2C30.498,20.848,30.243,20.946,29.987,20.946z"/><path d="M29.987,40.946c-0.552,0-1-0.448-1-1v-4c0-0.552,0.448-1,1-1s1,0.448,1,1v4C30.987,40.498,30.539,40.946,29.987,40.946z"/><path d="M31.987,42.946c-0.256,0-0.512-0.098-0.707-0.293l-2-2c-0.391-0.391-0.391-1.023,0-1.414s1.023-0.391,1.414,0l2,2   c0.391,0.391,0.391,1.023,0,1.414C32.498,42.848,32.243,42.946,31.987,42.946z"/><path d="M27.987,42.946c-0.256,0-0.512-0.098-0.707-0.293c-0.391-0.391-0.391-1.023,0-1.414l2-2c0.391-0.391,1.023-0.391,1.414,0   s0.391,1.023,0,1.414l-2,2C28.498,42.848,28.243,42.946,27.987,42.946z"/><path d="M39.987,30.946h-4c-0.552,0-1-0.448-1-1s0.448-1,1-1h4c0.552,0,1,0.448,1,1S40.539,30.946,39.987,30.946z"/><path d="M39.987,30.946c-0.256,0-0.512-0.098-0.707-0.293c-0.391-0.391-0.391-1.023,0-1.414l2-2c0.391-0.391,1.023-0.391,1.414,0   s0.391,1.023,0,1.414l-2,2C40.498,30.848,40.243,30.946,39.987,30.946z"/><path d="M41.987,32.946c-0.256,0-0.512-0.098-0.707-0.293l-2-2c-0.391-0.391-0.391-1.023,0-1.414s1.023-0.391,1.414,0l2,2   c0.391,0.391,0.391,1.023,0,1.414C42.498,32.848,42.243,32.946,41.987,32.946z"/><path d="M23.987,30.946h-4c-0.552,0-1-0.448-1-1s0.448-1,1-1h4c0.552,0,1,0.448,1,1S24.539,30.946,23.987,30.946z"/><path d="M17.987,32.946c-0.256,0-0.512-0.098-0.707-0.293c-0.391-0.391-0.391-1.023,0-1.414l2-2c0.391-0.391,1.023-0.391,1.414,0   s0.391,1.023,0,1.414l-2,2C18.498,32.848,18.243,32.946,17.987,32.946z"/><path d="M19.987,30.946c-0.256,0-0.512-0.098-0.707-0.293l-2-2c-0.391-0.391-0.391-1.023,0-1.414s1.023-0.391,1.414,0l2,2   c0.391,0.391,0.391,1.023,0,1.414C20.498,30.848,20.243,30.946,19.987,30.946z"/><path d="M25.744,26.703c-0.256,0-0.512-0.098-0.707-0.293l-2.757-2.757c-0.391-0.391-0.391-1.023,0-1.414s1.023-0.391,1.414,0   l2.757,2.757c0.391,0.391,0.391,1.023,0,1.414C26.256,26.605,26,26.703,25.744,26.703z"/><path d="M22.987,23.946h-3c-0.552,0-1-0.448-1-1s0.448-1,1-1h3c0.552,0,1,0.448,1,1S23.539,23.946,22.987,23.946z"/><path d="M22.987,23.946c-0.552,0-1-0.448-1-1v-3c0-0.552,0.448-1,1-1s1,0.448,1,1v3C23.987,23.498,23.539,23.946,22.987,23.946z"/><path d="M34.229,26.703c-0.256,0-0.512-0.098-0.707-0.293c-0.391-0.391-0.391-1.023,0-1.414l2.757-2.757   c0.391-0.391,1.023-0.391,1.414,0s0.391,1.023,0,1.414l-2.757,2.757C34.741,26.605,34.485,26.703,34.229,26.703z"/><path d="M39.987,23.946h-3c-0.552,0-1-0.448-1-1s0.448-1,1-1h3c0.552,0,1,0.448,1,1S40.539,23.946,39.987,23.946z"/><path d="M36.987,23.946c-0.552,0-1-0.448-1-1v-3c0-0.552,0.448-1,1-1s1,0.448,1,1v3C37.987,23.498,37.539,23.946,36.987,23.946z"/><path d="M36.987,37.946c-0.256,0-0.512-0.098-0.707-0.293l-2.757-2.757c-0.391-0.391-0.391-1.023,0-1.414s1.023-0.391,1.414,0   l2.757,2.757c0.391,0.391,0.391,1.023,0,1.414C37.498,37.848,37.243,37.946,36.987,37.946z"/><path d="M39.987,37.946h-3c-0.552,0-1-0.448-1-1s0.448-1,1-1h3c0.552,0,1,0.448,1,1S40.539,37.946,39.987,37.946z"/><path d="M36.987,40.946c-0.552,0-1-0.448-1-1v-3c0-0.552,0.448-1,1-1s1,0.448,1,1v3C37.987,40.498,37.539,40.946,36.987,40.946z"/><path d="M22.987,37.946c-0.256,0-0.512-0.098-0.707-0.293c-0.391-0.391-0.391-1.023,0-1.414l2.757-2.757   c0.391-0.391,1.023-0.391,1.414,0s0.391,1.023,0,1.414l-2.757,2.757C23.498,37.848,23.243,37.946,22.987,37.946z"/><path d="M22.987,37.946h-3c-0.552,0-1-0.448-1-1s0.448-1,1-1h3c0.552,0,1,0.448,1,1S23.539,37.946,22.987,37.946z"/><path d="M22.987,40.946c-0.552,0-1-0.448-1-1v-3c0-0.552,0.448-1,1-1s1,0.448,1,1v3C23.987,40.498,23.539,40.946,22.987,40.946z"/></g></svg>