<svg xmlns="http://www.w3.org/2000/svg" xmlns:xlink="http://www.w3.org/1999/xlink" version="1.1" x="0px" y="0px" viewBox="0 0 59 72.5" style="enable-background:new 0 0 59 58;" xml:space="preserve"><g><path d="M34,15c-0.091,0-0.183-0.013-0.275-0.039l-7-2c-0.531-0.152-0.839-0.705-0.687-1.236c0.152-0.531,0.706-0.839,1.236-0.687   l7,2c0.531,0.152,0.839,0.705,0.687,1.236C34.836,14.714,34.436,15,34,15z"/><path d="M27.999,18c-0.15,0-0.303-0.034-0.447-0.105c-0.494-0.247-0.694-0.848-0.447-1.342l2-4   c0.247-0.494,0.848-0.694,1.342-0.447s0.694,0.848,0.447,1.342l-2,4C28.719,17.798,28.366,18,27.999,18z"/><path d="M33.001,26c-0.367,0-0.72-0.202-0.895-0.553c-0.247-0.494-0.047-1.095,0.447-1.342l6-3   c0.493-0.248,1.094-0.047,1.342,0.447c0.247,0.494,0.047,1.095-0.447,1.342l-6,3C33.304,25.966,33.151,26,33.001,26z"/><path d="M37,27c-0.552,0-1-0.448-1-1v-3c0-0.552,0.448-1,1-1s1,0.448,1,1v3C38,26.552,37.552,27,37,27z"/><path d="M46,30c-0.552,0-1-0.448-1-1v-4c0-0.552,0.448-1,1-1s1,0.448,1,1v4C47,29.552,46.552,30,46,30z"/><path d="M44,32c-0.256,0-0.512-0.098-0.707-0.293c-0.391-0.391-0.391-1.023,0-1.414l2-2c0.39-0.391,1.024-0.391,1.414,0   c0.391,0.391,0.391,1.023,0,1.414l-2,2C44.512,31.902,44.256,32,44,32z"/><path d="M48,32c-0.256,0-0.512-0.098-0.707-0.293l-2-2c-0.391-0.391-0.391-1.023,0-1.414c0.39-0.391,1.024-0.391,1.414,0l2,2   c0.391,0.391,0.391,1.023,0,1.414C48.512,31.902,48.256,32,48,32z"/><path d="M55,5c-0.256,0-0.512-0.098-0.707-0.293c-0.391-0.391-0.391-1.023,0-1.414l3-3c0.39-0.391,1.024-0.391,1.414,0   c0.391,0.391,0.391,1.023,0,1.414l-3,3C55.512,4.902,55.256,5,55,5z"/><path d="M48,3c-0.256,0-0.512-0.098-0.707-0.293c-0.391-0.391-0.391-1.023,0-1.414l1-1c0.39-0.391,1.024-0.391,1.414,0   c0.391,0.391,0.391,1.023,0,1.414l-1,1C48.512,2.902,48.256,3,48,3z"/><path d="M57,10c-0.256,0-0.512-0.098-0.707-0.293c-0.391-0.391-0.391-1.023,0-1.414l1-1c0.39-0.391,1.024-0.391,1.414,0   c0.391,0.391,0.391,1.023,0,1.414l-1,1C57.512,9.902,57.256,10,57,10z"/><path d="M44,17c-0.256,0-0.512-0.098-0.707-0.293c-0.391-0.391-0.391-1.023,0-1.414l1-1c0.39-0.391,1.024-0.391,1.414,0   c0.391,0.391,0.391,1.023,0,1.414l-1,1C44.512,16.902,44.256,17,44,17z"/><path d="M44,12c-0.256,0-0.512-0.098-0.707-0.293c-0.391-0.391-0.391-1.023,0-1.414l1-1c0.39-0.391,1.024-0.391,1.414,0   c0.391,0.391,0.391,1.023,0,1.414l-1,1C44.512,11.902,44.256,12,44,12z"/><path d="M49,15c-0.256,0-0.512-0.098-0.707-0.293c-0.391-0.391-0.391-1.023,0-1.414l1-1c0.39-0.391,1.024-0.391,1.414,0   c0.391,0.391,0.391,1.023,0,1.414l-1,1C49.512,14.902,49.256,15,49,15z"/><path d="M47.229,22.116c-0.319,0-0.642-0.023-0.972-0.071c-3.635-0.521-6.617-3.734-7.46-4.928   c-2.471-3.504-2.132-4.833-0.574-6.187c0.619-0.539,1.029-0.894,0.823-2.236c-0.199-1.304,0.3-2.112,0.754-2.561   c1.164-1.15,3.444-1.424,6.969-0.842c1.501,0.249,2.737,0.378,3.888,0.408c1.943,0.05,2.271,1.576,2.535,2.802   c0.195,0.906,0.437,2.034,1.181,3.333c1.448,2.53,0.386,5.608-2.99,8.671l-0.018,0.039l-0.184,0.146   C49.991,21.639,48.664,22.116,47.229,22.116z M43.626,6.998c-1.679,0-2.255,0.396-2.42,0.559c-0.081,0.08-0.269,0.266-0.182,0.835   c0.372,2.432-0.748,3.405-1.489,4.049c-0.615,0.534-0.986,0.856,0.896,3.524c0.826,1.171,3.406,3.714,6.109,4.101   c1.243,0.181,2.34-0.118,3.35-0.903c0.039-0.038,0.082-0.076,0.129-0.119c1.52-1.375,3.882-4.01,2.619-6.216   c-0.898-1.568-1.188-2.919-1.4-3.906c-0.261-1.213-0.289-1.214-0.63-1.223c-1.246-0.031-2.57-0.169-4.164-0.434   C45.266,7.07,44.345,6.998,43.626,6.998z"/><path d="M21.895,57.257c-0.673,0-1.653-0.271-3.229-0.855l-0.156-0.058c-1.361-0.49-2.695-1.092-3.965-1.79   c-1.257-0.69-2.47-1.484-3.606-2.359c-0.551-0.424-1.09-0.872-1.603-1.332c-0.046-0.041-0.13-0.105-0.231-0.185   c-0.877-0.688-1.413-1.152-1.458-1.794c-0.115-1.643,0.047-3.44,0.48-5.343c0.624-2.74,1.997-5.417,4.082-7.957   c0.985-1.201,2.16-3.22,2.16-6.022c0-0.705-0.237-1.274-0.724-1.74c-1.217-1.161-4.023-1.731-7.696-1.56   c-1.858,0.085-3.603-0.481-4.901-1.598c-0.282-0.242-0.406-0.621-0.323-0.983C2.391,16.46,6.977,10.076,13.306,6.166   c0.577-0.357,1.384-0.265,2.876,0.33c0.688,0.274,1.311,0.664,1.852,1.159c0.917,0.838,1.613,1.998,2.067,3.445   c0.533,1.699,1.201,5.224,0.322,7.664c-0.074,0.204-0.171,0.398-0.27,0.59l-0.086,0.168c-0.584,1.194-0.511,2.55,0.201,3.722   c0.764,1.258,2.13,2.06,3.565,2.094c2.667,0.062,6.401,1.252,9.042,6.562c0.225,0.451,0.417,0.905,0.571,1.348   c2.269,6.51-2.49,10.674-6.689,14.347c-1.027,0.899-1.998,1.748-2.84,2.605c-0.538,0.547-0.851,1.073-0.932,1.563   c-0.066,0.398,0.002,0.866,0.075,1.361l0.031,0.212c0.125,0.882,0.196,1.78,0.211,2.668C23.309,56.406,23.126,56.77,22.8,57   C22.562,57.169,22.278,57.257,21.895,57.257z M9.628,48.51c0.186,0.183,0.555,0.473,0.711,0.595   c0.145,0.114,0.264,0.208,0.331,0.269c0.477,0.427,0.978,0.843,1.489,1.237c1.055,0.812,2.182,1.55,3.349,2.191   c1.178,0.647,2.417,1.207,3.679,1.661l0.174,0.064c0.923,0.342,1.521,0.526,1.906,0.624c-0.032-0.513-0.084-1.025-0.156-1.533   l-0.03-0.204c-0.088-0.596-0.187-1.272-0.07-1.978c0.15-0.904,0.647-1.791,1.479-2.637c0.895-0.911,1.893-1.784,2.949-2.709   c3.905-3.416,7.942-6.948,6.117-12.184c-0.127-0.364-0.286-0.739-0.473-1.115c-2.197-4.417-5.182-5.403-7.299-5.453c0,0,0,0,0,0   c-2.109-0.05-4.112-1.22-5.226-3.055c-1.073-1.766-1.178-3.822-0.288-5.64l0.105-0.207c0.06-0.116,0.122-0.23,0.166-0.352   c0.581-1.612,0.265-4.432-0.349-6.385c-0.348-1.107-0.855-1.972-1.509-2.569c-0.362-0.331-0.78-0.592-1.242-0.776   c-0.722-0.288-1.089-0.367-1.243-0.388c-5.613,3.525-9.725,9.152-11.372,15.538c0.847,0.546,1.903,0.815,3.029,0.762   c3.028-0.143,7.076,0.112,9.169,2.111c0.891,0.851,1.343,1.923,1.343,3.186c0,3.394-1.421,5.838-2.614,7.291   c-1.886,2.298-3.124,4.697-3.677,7.132C9.708,45.605,9.558,47.125,9.628,48.51z M9.54,48.412L9.54,48.412z"/><path d="M36.231,56.718c-0.344,0-0.673-0.178-0.857-0.485l-2.231-3.718c-0.687-1.138-0.527-2.115-0.272-2.734   c0.969-2.354,5.018-3.523,5.8-3.729c0.329-0.154,2.08-1.063,2.08-3.001c0-0.065,0.006-0.129,0.019-0.193   C40.832,42.537,42.37,35,47.294,35c1.437,0,3.236,0.146,4.404,1.284l2.349,2.349c0.276,0.276,0.366,0.687,0.231,1.053   c-2.961,8.03-9.593,14.379-17.742,16.985C36.435,56.703,36.332,56.718,36.231,56.718z M42.749,43.164   c-0.07,3.368-3.233,4.705-3.37,4.761c-0.043,0.018-0.089,0.033-0.135,0.044c-1.607,0.407-4.074,1.475-4.525,2.573   c-0.081,0.198-0.139,0.483,0.137,0.94l1.818,3.03c7.024-2.489,12.745-7.996,15.5-14.925l-1.881-1.881   C49.794,37.221,48.866,37,47.294,37C44.264,37,42.916,42.434,42.749,43.164z"/><path d="M28,58C12.561,58,0,45.439,0,30S12.561,2,28,2c3.262,0,6.463,0.559,9.513,1.661c0.3,0.108,0.53,0.353,0.619,0.658   c0.09,0.305,0.029,0.635-0.164,0.889c-0.755,0.99-1.077,2.214-0.931,3.54c0.035,0.315-0.082,0.628-0.315,0.843   c-3.021,2.796-1.573,5.824,0.441,8.679c1.426,2.022,5.363,5.845,10.055,5.845c1.879,0,3.68-0.643,5.209-1.859l0.556-0.442   c0.043-0.077,0.096-0.148,0.158-0.211c0.243-0.255,0.605-0.37,0.95-0.29c0.352,0.08,0.638,0.338,0.741,0.684   C55.607,24.597,56,27.29,56,30C56,45.439,43.439,58,28,58z M28,4C13.664,4,2,15.664,2,30s11.664,26,26,26s26-11.664,26-26   c0-1.992-0.228-3.973-0.68-5.91c-1.81,1.326-3.91,2.025-6.102,2.025c-5.511,0-10.056-4.377-11.689-6.692   c-1.302-1.846-4.705-6.668-0.518-10.957c-0.05-1.169,0.177-2.303,0.66-3.314C33.193,4.387,30.618,4,28,4z"/></g></svg>