<svg xmlns="http://www.w3.org/2000/svg" xmlns:xlink="http://www.w3.org/1999/xlink" version="1.1" x="0px" y="0px" viewBox="0 0 60 70" style="enable-background:new 0 0 60 56;" xml:space="preserve"><g><path d="M6,10.414L1.586,6L6,1.586L10.414,6L6,10.414z M4.414,6L6,7.586L7.586,6L6,4.414L4.414,6z"/><path d="M6,4C5.448,4,5,3.552,5,3V1c0-0.552,0.448-1,1-1s1,0.448,1,1v2C7,3.552,6.552,4,6,4z"/><path d="M11,7H9C8.448,7,8,6.552,8,6s0.448-1,1-1h2c0.552,0,1,0.448,1,1S11.552,7,11,7z"/><path d="M6,12c-0.552,0-1-0.448-1-1V9c0-0.552,0.448-1,1-1s1,0.448,1,1v2C7,11.552,6.552,12,6,12z"/><path d="M3,7H1C0.448,7,0,6.552,0,6s0.448-1,1-1h2c0.552,0,1,0.448,1,1S3.552,7,3,7z"/><path d="M11,37c-3.86,0-7-3.14-7-7s3.14-7,7-7s7,3.14,7,7S14.86,37,11,37z M11,25c-2.757,0-5,2.243-5,5s2.243,5,5,5s5-2.243,5-5   S13.757,25,11,25z"/><path d="M51,41H11C4.935,41,0,36.065,0,30s4.935-11,11-11h40c1.654,0,3,1.346,3,3s-1.346,3-3,3H36c-0.552,0-1,0.449-1,1   s0.448,1,1,1h21c1.654,0,3,1.346,3,3s-1.346,3-3,3H47c-0.552,0-1,0.449-1,1s0.448,1,1,1h4c1.654,0,3,1.346,3,3S52.654,41,51,41z    M11,21c-4.963,0-9,4.038-9,9s4.037,9,9,9h40c0.552,0,1-0.449,1-1s-0.448-1-1-1h-4c-1.654,0-3-1.346-3-3s1.346-3,3-3h10   c0.552,0,1-0.449,1-1s-0.448-1-1-1H36c-1.654,0-3-1.346-3-3s1.346-3,3-3h15c0.552,0,1-0.449,1-1s-0.448-1-1-1H11z"/><path d="M31,31H21c-0.552,0-1-0.448-1-1s0.448-1,1-1h10c0.552,0,1,0.448,1,1S31.552,31,31,31z"/><path d="M29,26H19c-0.552,0-1-0.448-1-1s0.448-1,1-1h10c0.552,0,1,0.448,1,1S29.552,26,29,26z"/><path d="M34,36H19c-0.552,0-1-0.448-1-1s0.448-1,1-1h15c0.552,0,1,0.448,1,1S34.552,36,34,36z"/><path d="M41,36h-3c-0.552,0-1-0.448-1-1s0.448-1,1-1h3c0.552,0,1,0.448,1,1S41.552,36,41,36z"/><path d="M9,30c-0.256,0-0.512-0.098-0.707-0.293c-0.391-0.391-0.391-1.023,0-1.414l1-1c0.39-0.391,1.024-0.391,1.414,0   c0.391,0.391,0.391,1.023,0,1.414l-1,1C9.512,29.902,9.256,30,9,30z"/><path d="M12,33c-0.256,0-0.512-0.098-0.707-0.293c-0.391-0.391-0.391-1.023,0-1.414l1-1c0.39-0.391,1.024-0.391,1.414,0   c0.391,0.391,0.391,1.023,0,1.414l-1,1C12.512,32.902,12.256,33,12,33z"/><path d="M43,16H13c-0.552,0-1-0.448-1-1s0.448-1,1-1h30c0.552,0,1,0.448,1,1S43.552,16,43,16z"/><path d="M49,11H27c-0.552,0-1-0.448-1-1s0.448-1,1-1h22c0.552,0,1,0.448,1,1S49.552,11,49,11z"/><path d="M35,6H21c-0.552,0-1-0.448-1-1s0.448-1,1-1h14c0.552,0,1,0.448,1,1S35.552,6,35,6z"/><path d="M43,6h-4c-0.552,0-1-0.448-1-1s0.448-1,1-1h4c0.552,0,1,0.448,1,1S43.552,6,43,6z"/><path d="M57,11h-4c-0.552,0-1-0.448-1-1s0.448-1,1-1h4c0.552,0,1,0.448,1,1S57.552,11,57,11z"/><path d="M51,16h-4c-0.552,0-1-0.448-1-1s0.448-1,1-1h4c0.552,0,1,0.448,1,1S51.552,16,51,16z"/><path d="M43,46H13c-0.552,0-1-0.448-1-1s0.448-1,1-1h30c0.552,0,1,0.448,1,1S43.552,46,43,46z"/><path d="M49,51H27c-0.552,0-1-0.448-1-1s0.448-1,1-1h22c0.552,0,1,0.448,1,1S49.552,51,49,51z"/><path d="M35,56H21c-0.552,0-1-0.448-1-1s0.448-1,1-1h14c0.552,0,1,0.448,1,1S35.552,56,35,56z"/><path d="M43,56h-4c-0.552,0-1-0.448-1-1s0.448-1,1-1h4c0.552,0,1,0.448,1,1S43.552,56,43,56z"/><path d="M57,51h-4c-0.552,0-1-0.448-1-1s0.448-1,1-1h4c0.552,0,1,0.448,1,1S57.552,51,57,51z"/><path d="M51,46h-4c-0.552,0-1-0.448-1-1s0.448-1,1-1h4c0.552,0,1,0.448,1,1S51.552,46,51,46z"/></g></svg>