<svg xmlns="http://www.w3.org/2000/svg" xmlns:xlink="http://www.w3.org/1999/xlink" version="1.1" x="0px" y="0px" viewBox="0 0 59.983 74.96374999999999" style="enable-background:new 0 0 59.983 59.971;" xml:space="preserve"><g><path d="M9.485,33.101c-0.265,0-0.52-0.105-0.707-0.293l-8.485-8.485c-0.391-0.391-0.391-1.023,0-1.414L22.92,0.281   c0.375-0.375,1.039-0.375,1.414,0l8.485,8.485c0.391,0.391,0.391,1.023,0,1.414L10.192,32.808   C10.005,32.996,9.75,33.101,9.485,33.101z M2.414,23.616l7.071,7.071L30.698,9.474l-7.071-7.071L2.414,23.616z"/><path d="M5.242,28.858c-0.256,0-0.512-0.098-0.707-0.293c-0.391-0.391-0.391-1.023,0-1.414L27.163,4.524   c0.39-0.391,1.024-0.391,1.414,0c0.391,0.391,0.391,1.023,0,1.414L5.949,28.565C5.754,28.761,5.498,28.858,5.242,28.858z"/><path d="M26.456,16.13c-0.256,0-0.512-0.098-0.707-0.293l-8.485-8.485c-0.188-0.188-0.293-0.442-0.293-0.707   s0.105-0.52,0.293-0.707l5.657-5.657c0.375-0.375,1.039-0.375,1.414,0l8.485,8.485c0.391,0.391,0.391,1.023,0,1.414l-5.657,5.657   C26.968,16.033,26.712,16.13,26.456,16.13z M19.385,6.646l7.071,7.071l4.242-4.243l-7.071-7.071L19.385,6.646z"/><path d="M9.485,33.101c-0.256,0-0.512-0.098-0.707-0.293l-8.485-8.485c-0.391-0.391-0.391-1.023,0-1.414l5.657-5.657   c0.39-0.391,1.024-0.391,1.414,0l8.485,8.485c0.188,0.188,0.293,0.442,0.293,0.707s-0.105,0.52-0.293,0.707l-5.657,5.657   C9.997,33.003,9.741,33.101,9.485,33.101z M2.414,23.616l7.071,7.071l4.243-4.243l-7.071-7.071L2.414,23.616z"/><path d="M15.142,27.444c-0.256,0-0.512-0.098-0.707-0.293L5.95,18.666c-0.188-0.188-0.293-0.442-0.293-0.707   s0.105-0.52,0.293-0.707l5.657-5.657c0.39-0.391,1.023-0.391,1.414,0l8.485,8.485c0.391,0.391,0.391,1.023,0,1.414l-5.657,5.657   C15.654,27.347,15.398,27.444,15.142,27.444z M8.071,17.959l7.071,7.071l4.242-4.243l-7.071-7.071L8.071,17.959z"/><path d="M20.799,21.788c-0.265,0-0.52-0.105-0.707-0.293l-8.485-8.485c-0.391-0.391-0.391-1.023,0-1.414l5.657-5.657   c0.39-0.391,1.023-0.391,1.414,0l8.485,8.485c0.188,0.188,0.293,0.442,0.293,0.707s-0.105,0.52-0.293,0.707l-5.657,5.657   C21.318,21.682,21.064,21.788,20.799,21.788z M13.728,12.302l7.071,7.071l4.243-4.243L17.97,8.06L13.728,12.302z"/><path d="M30.698,40.172c-0.265,0-0.52-0.105-0.707-0.293l-9.9-9.899c-0.188-0.188-0.293-0.442-0.293-0.707s0.105-0.52,0.293-0.707   l8.485-8.485c0.39-0.391,1.024-0.391,1.414,0l9.899,9.899c0.391,0.391,0.391,1.023,0,1.414l-8.485,8.485   C31.218,40.067,30.964,40.172,30.698,40.172z M22.213,29.273l8.485,8.485l7.071-7.071l-8.485-8.485L22.213,29.273z"/><path d="M27.87,43c-0.256,0-0.512-0.098-0.707-0.293l-9.899-9.899c-0.188-0.188-0.293-0.442-0.293-0.707s0.105-0.52,0.293-0.707   l2.828-2.828c0.391-0.391,1.023-0.391,1.414,0l9.9,9.899c0.188,0.188,0.293,0.442,0.293,0.707s-0.105,0.52-0.293,0.707   l-2.829,2.828C28.382,42.903,28.126,43,27.87,43z M19.385,32.101l8.485,8.485l1.414-1.414l-8.485-8.485L19.385,32.101z"/><path d="M15.142,41.586c-0.265,0-0.52-0.105-0.707-0.293l-2.828-2.829c-0.391-0.391-0.391-1.023,0-1.414l5.657-5.657   c0.375-0.375,1.039-0.375,1.414,0l2.828,2.829c0.391,0.391,0.391,1.023,0,1.414l-5.657,5.657   C15.662,41.481,15.407,41.586,15.142,41.586z M13.728,37.758l1.414,1.415l4.242-4.243l-1.414-1.415L13.728,37.758z"/><path d="M22.213,48.658c-0.265,0-0.52-0.105-0.707-0.293l-2.828-2.829c-0.391-0.391-0.391-1.023,0-1.414l5.657-5.657   c0.39-0.391,1.023-0.391,1.414,0l2.828,2.828c0.188,0.188,0.293,0.442,0.293,0.707s-0.105,0.52-0.293,0.707l-5.657,5.657   C22.733,48.552,22.478,48.658,22.213,48.658z M20.799,44.829l1.414,1.415L26.456,42l-1.414-1.414L20.799,44.829z"/><path d="M39.184,31.687c-0.256,0-0.512-0.098-0.707-0.293l-9.899-9.899c-0.391-0.391-0.391-1.023,0-1.414   c1.511-1.511,3.52-2.343,5.657-2.343s4.146,0.832,5.657,2.343l0,0c1.511,1.511,2.343,3.52,2.343,5.657   c0,2.137-0.832,4.146-2.343,5.657C39.696,31.589,39.439,31.687,39.184,31.687z M30.757,20.846l8.369,8.369   c0.72-1.008,1.109-2.213,1.109-3.477c0-1.603-0.624-3.109-1.757-4.243l0,0c-1.133-1.133-2.64-1.757-4.243-1.757   C32.97,19.737,31.765,20.125,30.757,20.846z"/><path d="M18.677,49.365c-0.265,0-0.52-0.105-0.707-0.293L10.899,42c-0.188-0.188-0.293-0.442-0.293-0.707s0.105-0.52,0.293-0.707   l2.121-2.121c0.391-0.391,1.023-0.391,1.414,0l0.707,0.707l4.95-4.95c0.39-0.391,1.024-0.391,1.414,0l4.243,4.243   c0.391,0.391,0.391,1.023,0,1.414l-4.949,4.95l0.707,0.707c0.391,0.391,0.391,1.023,0,1.414l-2.121,2.122   C19.197,49.259,18.943,49.365,18.677,49.365z M13.021,41.293l5.657,5.657l0.707-0.708l-0.707-0.707   c-0.391-0.391-0.391-1.023,0-1.414l4.949-4.95l-2.828-2.829l-4.95,4.95c-0.39,0.391-1.023,0.391-1.414,0l-0.707-0.707   L13.021,41.293z"/><path d="M27.869,23.202c-0.467,0-0.885-0.329-0.979-0.804l-1.414-7.071c-0.108-0.542,0.243-1.068,0.784-1.177   c0.542-0.108,1.069,0.243,1.177,0.784l1.414,7.071c0.108,0.542-0.243,1.068-0.784,1.177C28,23.195,27.934,23.202,27.869,23.202z"/><path d="M27.871,23.202c-0.065,0-0.131-0.006-0.197-0.02l-7.071-1.414c-0.542-0.108-0.893-0.635-0.784-1.177   c0.108-0.542,0.635-0.89,1.177-0.784l7.071,1.414c0.542,0.108,0.893,0.635,0.784,1.177C28.755,22.873,28.338,23.202,27.871,23.202z   "/><path d="M19.384,31.687c-0.467,0-0.885-0.329-0.979-0.804l-1.414-7.071c-0.108-0.542,0.243-1.068,0.784-1.177   c0.543-0.105,1.068,0.244,1.177,0.784l1.414,7.071c0.108,0.542-0.243,1.068-0.784,1.177C19.515,31.681,19.449,31.687,19.384,31.687   z"/><path d="M19.386,31.687c-0.065,0-0.131-0.006-0.197-0.02l-7.071-1.414c-0.542-0.108-0.893-0.635-0.784-1.177   c0.108-0.541,0.635-0.892,1.177-0.784l7.071,1.414c0.542,0.108,0.893,0.635,0.784,1.177C20.27,31.358,19.853,31.687,19.386,31.687z   "/><path d="M36.355,59.971c-0.256,0-0.512-0.098-0.707-0.293l-8.485-8.485c-0.391-0.391-0.391-1.023,0-1.414L49.79,27.151   c0.39-0.391,1.024-0.391,1.414,0l8.485,8.485c0.391,0.391,0.391,1.023,0,1.414L37.062,59.678   C36.867,59.874,36.611,59.971,36.355,59.971z M29.284,50.486l7.071,7.071l21.213-21.213l-7.071-7.071L29.284,50.486z"/><path d="M32.113,55.729c-0.256,0-0.512-0.098-0.707-0.293c-0.391-0.391-0.391-1.023,0-1.414l22.627-22.627   c0.39-0.391,1.024-0.391,1.414,0c0.391,0.391,0.391,1.023,0,1.414L32.82,55.436C32.625,55.631,32.368,55.729,32.113,55.729z"/><path d="M53.326,43c-0.256,0-0.512-0.098-0.707-0.293l-8.485-8.485c-0.391-0.391-0.391-1.023,0-1.414l5.657-5.657   c0.39-0.391,1.024-0.391,1.414,0l8.485,8.485c0.391,0.391,0.391,1.023,0,1.414l-5.657,5.657C53.838,42.903,53.582,43,53.326,43z    M46.255,33.515l7.071,7.071l4.242-4.243l-7.071-7.071L46.255,33.515z"/><path d="M36.355,59.971c-0.256,0-0.512-0.098-0.707-0.293l-8.485-8.485c-0.188-0.188-0.293-0.442-0.293-0.707   s0.105-0.52,0.293-0.707l5.657-5.657c0.39-0.391,1.023-0.391,1.414,0l8.485,8.485c0.188,0.188,0.293,0.442,0.293,0.707   s-0.105,0.52-0.293,0.707l-5.657,5.657C36.867,59.874,36.611,59.971,36.355,59.971z M29.284,50.486l7.071,7.071l4.243-4.243   l-7.071-7.071L29.284,50.486z"/><path d="M42.012,54.314c-0.256,0-0.512-0.098-0.707-0.293l-8.485-8.485c-0.391-0.391-0.391-1.023,0-1.414l5.657-5.657   c0.39-0.391,1.024-0.391,1.414,0l8.485,8.485c0.391,0.391,0.391,1.023,0,1.414l-5.657,5.657   C42.524,54.217,42.268,54.314,42.012,54.314z M34.941,44.829l7.071,7.071l4.242-4.243l-7.071-7.071L34.941,44.829z"/><path d="M47.669,48.658c-0.265,0-0.52-0.105-0.707-0.293l-8.485-8.485c-0.391-0.391-0.391-1.023,0-1.414l5.657-5.657   c0.375-0.375,1.039-0.375,1.414,0l8.485,8.485c0.391,0.391,0.391,1.023,0,1.414l-5.657,5.657   C48.188,48.552,47.934,48.658,47.669,48.658z M40.598,39.172l7.071,7.071L51.912,42l-7.071-7.071L40.598,39.172z"/><path d="M44.842,34.515c-0.065,0-0.131-0.006-0.197-0.02l-7.071-1.414c-0.542-0.108-0.893-0.635-0.784-1.177   c0.108-0.541,0.636-0.892,1.177-0.784l7.071,1.414c0.542,0.108,0.893,0.635,0.784,1.177C45.726,34.187,45.309,34.515,44.842,34.515   z"/><path d="M39.183,40.172c-0.467,0-0.885-0.329-0.979-0.804l-1.414-7.071c-0.108-0.542,0.243-1.068,0.784-1.177   c0.544-0.107,1.068,0.243,1.177,0.784l1.414,7.071c0.108,0.542-0.243,1.068-0.784,1.177C39.313,40.166,39.248,40.172,39.183,40.172   z"/><path d="M36.356,43c-0.065,0-0.131-0.006-0.197-0.02l-7.071-1.414c-0.542-0.108-0.893-0.635-0.784-1.177   c0.108-0.541,0.635-0.889,1.177-0.784l7.071,1.414c0.542,0.108,0.893,0.635,0.784,1.177C37.241,42.672,36.823,43,36.356,43z"/><path d="M30.698,48.658c-0.467,0-0.885-0.329-0.979-0.804l-1.414-7.071c-0.108-0.542,0.243-1.068,0.784-1.177   c0.543-0.104,1.068,0.243,1.177,0.784l1.414,7.071c0.108,0.542-0.243,1.068-0.784,1.177C30.828,48.651,30.762,48.658,30.698,48.658   z"/><path d="M30.698,34.515c-0.256,0-0.512-0.098-0.707-0.293l-4.243-4.242c-0.188-0.188-0.293-0.442-0.293-0.707   s0.105-0.52,0.293-0.707l2.828-2.829c0.375-0.375,1.039-0.375,1.414,0l4.243,4.243c0.188,0.188,0.293,0.442,0.293,0.707   s-0.105,0.52-0.293,0.707l-2.828,2.828C31.21,34.417,30.954,34.515,30.698,34.515z M27.87,29.273l2.828,2.828l1.414-1.414   l-2.828-2.829L27.87,29.273z"/><path d="M14.435,50.779c-0.265,0-0.52-0.105-0.707-0.293l-4.243-4.243c-0.391-0.391-0.391-1.023,0-1.414L12.314,42   c0.375-0.375,1.039-0.375,1.414,0l4.243,4.243c0.391,0.391,0.391,1.023,0,1.414l-2.828,2.829   C14.955,50.673,14.7,50.779,14.435,50.779z M11.607,45.536l2.828,2.829l1.414-1.415l-2.829-2.829L11.607,45.536z"/><path d="M8.071,50.072c-0.256,0-0.512-0.098-0.707-0.293c-0.391-0.391-0.391-1.023,0-1.414l2.828-2.829   c0.39-0.391,1.023-0.391,1.414,0s0.391,1.023,0,1.414l-2.828,2.829C8.583,49.974,8.327,50.072,8.071,50.072z"/><path d="M10.899,52.9c-0.256,0-0.512-0.098-0.707-0.293c-0.391-0.391-0.391-1.023,0-1.414l2.828-2.828   c0.391-0.391,1.024-0.391,1.414,0c0.391,0.391,0.391,1.023,0,1.414l-2.828,2.828C11.411,52.802,11.155,52.9,10.899,52.9z"/></g></svg>