<svg xmlns="http://www.w3.org/2000/svg" xmlns:xlink="http://www.w3.org/1999/xlink" version="1.1" x="0px" y="0px" viewBox="0 0 60 72.5" style="enable-background:new 0 0 60 58;" xml:space="preserve"><g><path d="M10.606,51c-0.172,0-0.346-0.012-0.521-0.037c-2.016-0.287-3.65-2.139-4.109-2.829c-1.237-1.856-1.293-2.867-0.212-3.861   c0.263-0.242,0.334-0.307,0.265-0.784c-0.131-0.905,0.228-1.469,0.552-1.784c0.719-0.699,1.994-0.876,3.896-0.542   c0.724,0.126,1.317,0.193,1.868,0.208c1.373,0.037,1.614,1.227,1.744,1.866c0.096,0.474,0.205,1.011,0.545,1.639   c0.476,0.88,0.904,2.701-1.516,5.065l-0.016,0.037l-0.177,0.149C12.24,50.703,11.446,51,10.606,51z M7.01,45.842   c0.031,0.129,0.152,0.466,0.629,1.183c0.362,0.543,1.551,1.791,2.727,1.958c0.459,0.064,0.851-0.047,1.232-0.356l0.054-0.053   c0.536-0.513,1.728-1.808,1.22-2.747c-0.481-0.89-0.64-1.674-0.746-2.192c-0.017-0.085-0.037-0.185-0.057-0.272   c-0.592-0.028-1.212-0.102-1.94-0.229c-1.359-0.239-1.978-0.096-2.133-0.008c0.003,0.013,0.004,0.04,0.01,0.079   c0.219,1.521-0.503,2.186-0.891,2.542C7.081,45.778,7.043,45.809,7.01,45.842z"/><path d="M43,54c-0.256,0-0.512-0.098-0.707-0.293c-0.391-0.391-0.391-1.023,0-1.414l1-1c0.39-0.391,1.024-0.391,1.414,0   c0.391,0.391,0.391,1.023,0,1.414l-1,1C43.512,53.902,43.256,54,43,54z"/><path d="M50,58c-0.256,0-0.512-0.098-0.707-0.293c-0.391-0.391-0.391-1.023,0-1.414l1-1c0.39-0.391,1.024-0.391,1.414,0   c0.391,0.391,0.391,1.023,0,1.414l-1,1C50.512,57.902,50.256,58,50,58z"/><path d="M45,58c-0.256,0-0.512-0.098-0.707-0.293c-0.391-0.391-0.391-1.023,0-1.414l1-1c0.39-0.391,1.024-0.391,1.414,0   c0.391,0.391,0.391,1.023,0,1.414l-1,1C45.512,57.902,45.256,58,45,58z"/><path d="M47,49c-0.256,0-0.512-0.098-0.707-0.293c-0.391-0.391-0.391-1.023,0-1.414l1-1c0.39-0.391,1.024-0.391,1.414,0   c0.391,0.391,0.391,1.023,0,1.414l-1,1C47.512,48.902,47.256,49,47,49z"/><path d="M54,53c-0.256,0-0.512-0.098-0.707-0.293c-0.391-0.391-0.391-1.023,0-1.414l1-1c0.39-0.391,1.024-0.391,1.414,0   c0.391,0.391,0.391,1.023,0,1.414l-1,1C54.512,52.902,54.256,53,54,53z"/><path d="M49,53c-0.256,0-0.512-0.098-0.707-0.293c-0.391-0.391-0.391-1.023,0-1.414l1-1c0.39-0.391,1.024-0.391,1.414,0   c0.391,0.391,0.391,1.023,0,1.414l-1,1C49.512,52.902,49.256,53,49,53z"/><path d="M47,8c-0.256,0-0.512-0.098-0.707-0.293c-0.391-0.391-0.391-1.023,0-1.414l1-1c0.39-0.391,1.024-0.391,1.414,0   c0.391,0.391,0.391,1.023,0,1.414l-1,1C47.512,7.902,47.256,8,47,8z"/><path d="M54,12c-0.256,0-0.512-0.098-0.707-0.293c-0.391-0.391-0.391-1.023,0-1.414l1-1c0.39-0.391,1.024-0.391,1.414,0   c0.391,0.391,0.391,1.023,0,1.414l-1,1C54.512,11.902,54.256,12,54,12z"/><path d="M49,12c-0.256,0-0.512-0.098-0.707-0.293c-0.391-0.391-0.391-1.023,0-1.414l1-1c0.39-0.391,1.024-0.391,1.414,0   c0.391,0.391,0.391,1.023,0,1.414l-1,1C49.512,11.902,49.256,12,49,12z"/><path d="M51,3c-0.256,0-0.512-0.098-0.707-0.293c-0.391-0.391-0.391-1.023,0-1.414l1-1c0.39-0.391,1.024-0.391,1.414,0   c0.391,0.391,0.391,1.023,0,1.414l-1,1C51.512,2.902,51.256,3,51,3z"/><path d="M58,7c-0.256,0-0.512-0.098-0.707-0.293c-0.391-0.391-0.391-1.023,0-1.414l1-1c0.39-0.391,1.024-0.391,1.414,0   c0.391,0.391,0.391,1.023,0,1.414l-1,1C58.512,6.902,58.256,7,58,7z"/><path d="M53,7c-0.256,0-0.512-0.098-0.707-0.293c-0.391-0.391-0.391-1.023,0-1.414l1-1c0.39-0.391,1.024-0.391,1.414,0   c0.391,0.391,0.391,1.023,0,1.414l-1,1C53.512,6.902,53.256,7,53,7z"/><path d="M44,41c-7.168,0-13-5.832-13-13s5.832-13,13-13s13,5.832,13,13S51.168,41,44,41z M44,17c-6.065,0-11,4.935-11,11   s4.935,11,11,11s11-4.935,11-11S50.066,17,44,17z"/><path d="M9.999,23c-0.474,0-0.895-0.338-0.983-0.821c-0.099-0.543,0.262-1.064,0.805-1.163l33-6   c0.545-0.097,1.064,0.262,1.163,0.805c0.099,0.543-0.262,1.064-0.805,1.163l-33,6C10.119,22.995,10.058,23,9.999,23z"/><path d="M1,38c-0.435,0-0.835-0.287-0.961-0.726c-0.152-0.531,0.156-1.084,0.687-1.236l42-12c0.532-0.154,1.084,0.156,1.236,0.687   c0.152,0.531-0.156,1.084-0.687,1.236l-42,12C1.183,37.988,1.091,38,1,38z"/><path d="M21,42c-0.411,0-0.796-0.255-0.942-0.664c-0.186-0.52,0.085-1.092,0.605-1.278l14-5c0.521-0.184,1.093,0.085,1.278,0.605   c0.186,0.52-0.085,1.092-0.605,1.278l-14,5C21.225,41.981,21.112,42,21,42z"/><path d="M17.001,57c-0.358,0-0.704-0.192-0.884-0.531c-0.259-0.488-0.074-1.093,0.414-1.353l32-17   c0.488-0.259,1.093-0.075,1.352,0.414c0.259,0.488,0.074,1.093-0.414,1.353l-32,17C17.32,56.962,17.159,57,17.001,57z"/><path d="M6,10.414L1.586,6L6,1.586L10.415,6L6,10.414z M4.415,6L6,7.586L7.586,6L6,4.414L4.415,6z"/><path d="M6,4C5.448,4,5,3.552,5,3V1c0-0.552,0.448-1,1-1s1,0.448,1,1v2C7,3.552,6.552,4,6,4z"/><path d="M11,7H9C8.448,7,8,6.552,8,6s0.448-1,1-1h2c0.552,0,1,0.448,1,1S11.552,7,11,7z"/><path d="M6,12c-0.552,0-1-0.448-1-1V9c0-0.552,0.448-1,1-1s1,0.448,1,1v2C7,11.552,6.552,12,6,12z"/><path d="M3,7H1C0.448,7,0,6.552,0,6s0.448-1,1-1h2c0.552,0,1,0.448,1,1S3.552,7,3,7z"/></g></svg>