<svg xmlns="http://www.w3.org/2000/svg" xmlns:xlink="http://www.w3.org/1999/xlink" version="1.1" x="0px" y="0px" viewBox="0 0 60 75" style="enable-background:new 0 0 60 60;" xml:space="preserve"><g><path d="M30,43c-7.168,0-13-5.832-13-13s5.832-13,13-13s13,5.832,13,13S37.168,43,30,43z M30,19c-6.065,0-11,4.935-11,11   s4.935,11,11,11s11-4.935,11-11S36.065,19,30,19z"/><path d="M30,15c-0.552,0-1-0.448-1-1V1c0-0.552,0.448-1,1-1s1,0.448,1,1v13C31,14.552,30.552,15,30,15z"/><path d="M14,31H1c-0.552,0-1-0.448-1-1s0.448-1,1-1h13c0.552,0,1,0.448,1,1S14.552,31,14,31z"/><path d="M18,19c-0.256,0-0.512-0.098-0.707-0.293l-7-7c-0.391-0.391-0.391-1.023,0-1.414s1.023-0.391,1.414,0l7,7   c0.391,0.391,0.391,1.023,0,1.414C18.512,18.902,18.256,19,18,19z"/><path d="M15,25c-0.117,0-0.235-0.021-0.351-0.064l-8-3c-0.517-0.194-0.779-0.771-0.585-1.288c0.194-0.517,0.771-0.777,1.288-0.585   l8,3c0.517,0.194,0.779,0.771,0.585,1.288C15.786,24.752,15.405,25,15,25z"/><path d="M24,16c-0.397,0-0.772-0.238-0.929-0.629l-2-5c-0.205-0.513,0.044-1.095,0.557-1.3c0.515-0.203,1.095,0.045,1.3,0.557l2,5   c0.205,0.513-0.044,1.095-0.557,1.3C24.25,15.977,24.124,16,24,16z"/><path d="M59,31H46c-0.552,0-1-0.448-1-1s0.448-1,1-1h13c0.552,0,1,0.448,1,1S59.552,31,59,31z"/><path d="M42,19c-0.256,0-0.512-0.098-0.707-0.293c-0.391-0.391-0.391-1.023,0-1.414l7-7c0.391-0.391,1.023-0.391,1.414,0   s0.391,1.023,0,1.414l-7,7C42.512,18.902,42.256,19,42,19z"/><path d="M45,25c-0.405,0-0.786-0.248-0.937-0.649c-0.194-0.517,0.068-1.093,0.585-1.288l8-3c0.518-0.191,1.093,0.068,1.288,0.585   c0.194,0.517-0.068,1.093-0.585,1.288l-8,3C45.235,24.979,45.117,25,45,25z"/><path d="M36,16c-0.124,0-0.249-0.023-0.371-0.072c-0.513-0.206-0.762-0.787-0.557-1.3l2-5c0.206-0.513,0.786-0.761,1.3-0.557   c0.513,0.206,0.762,0.787,0.557,1.3l-2,5C36.772,15.762,36.396,16,36,16z"/><path d="M30,60c-0.552,0-1-0.448-1-1V46c0-0.552,0.448-1,1-1s1,0.448,1,1v13C31,59.552,30.552,60,30,60z"/><path d="M49,50c-0.256,0-0.512-0.098-0.707-0.293l-7-7c-0.391-0.391-0.391-1.023,0-1.414s1.023-0.391,1.414,0l7,7   c0.391,0.391,0.391,1.023,0,1.414C49.512,49.902,49.256,50,49,50z"/><path d="M53,40c-0.117,0-0.235-0.021-0.351-0.064l-8-3c-0.517-0.194-0.779-0.771-0.585-1.288c0.194-0.517,0.771-0.776,1.288-0.585   l8,3c0.517,0.194,0.779,0.771,0.585,1.288C53.786,39.752,53.405,40,53,40z"/><path d="M38,51c-0.397,0-0.772-0.238-0.929-0.629l-2-5c-0.205-0.513,0.044-1.095,0.557-1.3c0.514-0.203,1.095,0.045,1.3,0.557l2,5   c0.205,0.513-0.044,1.095-0.557,1.3C38.25,50.977,38.124,51,38,51z"/><path d="M11,50c-0.256,0-0.512-0.098-0.707-0.293c-0.391-0.391-0.391-1.023,0-1.414l7-7c0.391-0.391,1.023-0.391,1.414,0   s0.391,1.023,0,1.414l-7,7C11.512,49.902,11.256,50,11,50z"/><path d="M7,40c-0.405,0-0.786-0.248-0.937-0.649c-0.194-0.517,0.068-1.093,0.585-1.288l8-3c0.518-0.19,1.093,0.068,1.288,0.585   c0.194,0.517-0.068,1.093-0.585,1.288l-8,3C7.235,39.979,7.117,40,7,40z"/><path d="M22,51c-0.124,0-0.249-0.023-0.371-0.072c-0.513-0.206-0.762-0.787-0.557-1.3l2-5c0.206-0.512,0.785-0.762,1.3-0.557   c0.513,0.206,0.762,0.787,0.557,1.3l-2,5C22.772,50.762,22.396,51,22,51z"/><path d="M28,31h-6c-0.552,0-1-0.448-1-1s0.448-1,1-1h6c0.552,0,1,0.448,1,1S28.552,31,28,31z"/><path d="M38,31h-6c-0.552,0-1-0.448-1-1s0.448-1,1-1h6c0.552,0,1,0.448,1,1S38.552,31,38,31z"/><path d="M36,27H24c-0.552,0-1-0.448-1-1s0.448-1,1-1h12c0.552,0,1,0.448,1,1S36.552,27,36,27z"/><path d="M33,23h-6c-0.552,0-1-0.448-1-1s0.448-1,1-1h6c0.552,0,1,0.448,1,1S33.552,23,33,23z"/><path d="M36,35H24c-0.552,0-1-0.448-1-1s0.448-1,1-1h12c0.552,0,1,0.448,1,1S36.552,35,36,35z"/><path d="M33,39h-6c-0.552,0-1-0.448-1-1s0.448-1,1-1h6c0.552,0,1,0.448,1,1S33.552,39,33,39z"/></g></svg>