<svg xmlns="http://www.w3.org/2000/svg" xmlns:xlink="http://www.w3.org/1999/xlink" version="1.1" x="0px" y="0px" viewBox="0 0 60 75.02625" style="enable-background:new 0 0 60 60.021;" xml:space="preserve"><g><path d="M15.789,60.021c-0.486,0-0.786-0.019-0.86-0.024c-0.002,0-0.004,0-0.006,0c-2.289,0-4.59-1.342-6.583-3.88   C6.782,54.136,4.513,53,2.112,53H2c-0.379,0-0.725-0.214-0.895-0.553c-0.302-0.605-0.537-1.48-0.717-2.676   c-0.671-4.437,0.082-9.029,2.119-12.929c2.166-4.145,5.024-7.095,6.535-8.484h0c1.479-1.361,3.621-1.733,5.46-0.95   c1.137,0.484,2.172,1.147,2.711,1.517c2.233-0.59,4.256-2.284,5.59-3.643c2.62-2.668,6.749-3.061,9.817-0.935   c3.074,2.13,5.108,4.953,5.193,5.072c2.87,3.439,2.619,8.058-0.727,12.632c0.704,0.257,1.56,0.872,1.889,2.357   c0.333,1.496-0.075,3.129-1.118,4.479C29.87,59.233,18.934,60.021,15.789,60.021z M2.691,51.018   c2.801,0.168,5.406,1.556,7.22,3.865C11.029,56.305,12.819,58,15,58c0.198,0.012,12.727,0.735,21.275-10.335   c0.679-0.879,0.952-1.908,0.749-2.823c-0.169-0.762-0.51-0.874-0.638-0.917c-0.61-0.201-1.087-0.676-1.277-1.271   c-0.183-0.576-0.079-1.187,0.285-1.677c1.665-2.24,3.986-6.559,0.838-10.337c-0.064-0.084-1.972-2.724-4.751-4.65   c-2.265-1.569-5.314-1.278-7.251,0.693c-2.345,2.387-4.711,3.833-7.033,4.297c-0.28,0.057-0.568-0.01-0.796-0.18   c-0.013-0.009-1.288-0.958-2.683-1.553c-1.116-0.475-2.42-0.248-3.321,0.582c0,0,0,0,0,0c-1.415,1.302-4.09,4.063-6.116,7.939   c-1.842,3.526-2.522,7.683-1.914,11.704C2.472,50.178,2.586,50.672,2.691,51.018z M9.719,29.094h0.01H9.719z"/><path d="M18.089,21.958c-0.209,0-0.401-0.023-0.572-0.058c-2.155-0.442-3.32-3.214-3.446-3.528   c-0.022-0.057-0.04-0.116-0.052-0.175c-1.179-5.893,8.357-8.082,8.764-8.172C22.854,10.008,22.927,10,23,10c0.005,0,0.1,0,0.105,0   c1.109,0.015,2.06,0.667,2.478,1.701c0.429,1.061,0.18,2.269-0.635,3.078c-1.854,1.84-4.058,5.679-4.08,5.717   c-0.044,0.077-0.098,0.148-0.161,0.211C19.727,21.688,18.806,21.958,18.089,21.958z M15.964,17.713   c0.306,0.707,1.123,2.059,1.958,2.228c0.378,0.074,0.806-0.113,1.282-0.561c0.413-0.709,2.465-4.164,4.335-6.021   c0.293-0.291,0.29-0.66,0.19-0.909c-0.065-0.161-0.23-0.427-0.616-0.449C22.18,12.238,15.36,14.1,15.964,17.713z"/><path d="M47.599,36c-0.628,0-1.249-0.151-1.851-0.453c-1.956-0.978-2.948-2.99-2.469-5.008c0.706-2.971,2.558-4.746,3.988-5.711   l0,0c1.132-0.765,2.507-0.956,3.678-0.51C52.567,24.936,53,26.294,53,27c0,0.379-0.214,0.725-0.553,0.895   c-1.362,0.681-1.797,1.646-1.371,3.038c0.373,1.216,0.232,2.469-0.387,3.437c-0.563,0.88-1.47,1.447-2.555,1.594   C47.956,35.988,47.777,36,47.599,36z M49.632,26.08c-0.414,0-0.851,0.139-1.245,0.405h0c-1.135,0.767-2.605,2.172-3.161,4.516   c-0.264,1.113,0.292,2.195,1.417,2.757c0.412,0.206,0.812,0.28,1.222,0.224c0.501-0.068,0.895-0.307,1.14-0.69   c0.302-0.472,0.36-1.118,0.16-1.773c-0.625-2.038-0.033-3.806,1.626-4.962c-0.114-0.131-0.289-0.267-0.559-0.369   C50.044,26.115,49.841,26.08,49.632,26.08z"/><path d="M30,17c-0.219,0-0.44-0.072-0.624-0.219c-0.432-0.345-0.501-0.974-0.156-1.405l4-5c0.345-0.432,0.975-0.501,1.405-0.156   c0.432,0.345,0.501,0.974,0.156,1.405l-4,5C30.583,16.872,30.292,17,30,17z"/><path d="M51,20c-0.226,0-0.453-0.076-0.64-0.232c-0.424-0.354-0.481-0.984-0.128-1.408l5-6c0.354-0.423,0.984-0.482,1.408-0.128   c0.424,0.354,0.481,0.984,0.128,1.408l-5,6C51.57,19.877,51.286,20,51,20z"/><path d="M14.001,60c-0.367,0-0.72-0.202-0.896-0.553c-0.613-1.226-0.946-2.489-0.989-3.753c-0.065-1.885,0.724-3.773,2.223-5.315   c2.339-2.408,1.698-5.109,1.691-5.136c-0.134-0.536,0.192-1.079,0.728-1.213c0.535-0.135,1.079,0.192,1.213,0.728   c0.039,0.154,0.909,3.817-2.197,7.015c-1.116,1.148-1.705,2.517-1.658,3.853c0.033,0.976,0.295,1.96,0.779,2.928   c0.247,0.494,0.047,1.095-0.447,1.342C14.304,59.966,14.151,60,14.001,60z"/><path d="M21,41c-0.124,0-0.249-0.023-0.371-0.072c-0.513-0.205-0.762-0.787-0.557-1.3c0.857-2.143,2.489-3.354,4.721-3.505   c1.518-0.103,2.927-1.102,3.678-2.606c0.75-1.504,1.852-2.267,1.975-2.349c0.459-0.307,1.08-0.182,1.387,0.277   c0.305,0.458,0.183,1.075-0.271,1.383c-0.017,0.012-0.787,0.553-1.301,1.582c-1.066,2.137-3.11,3.559-5.333,3.708   c-1.451,0.098-2.432,0.835-2.999,2.253C21.772,40.762,21.396,41,21,41z"/><path d="M9.001,42c-0.366,0-0.719-0.202-0.895-0.552c-0.248-0.493-0.048-1.093,0.444-1.342C9.51,39.623,12,37.942,12,36   c0-2.421,1.045-7,5-7c0.552,0,1,0.448,1,1s-0.448,1-1,1c-2.95,0-3,4.952-3,5.001c0,3.576-4.367,5.8-4.553,5.893   C9.304,41.966,9.151,42,9.001,42z"/><path d="M38,22c-0.226,0-0.453-0.076-0.64-0.232c-0.424-0.354-0.481-0.984-0.128-1.408l15-18c0.354-0.424,0.984-0.482,1.408-0.128   c0.424,0.354,0.481,0.984,0.128,1.408l-15,18C38.57,21.877,38.286,22,38,22z"/><path d="M6,10.414L1.586,6L6,1.586L10.414,6L6,10.414z M4.414,6L6,7.586L7.586,6L6,4.414L4.414,6z"/><path d="M6,4C5.448,4,5,3.552,5,3V1c0-0.552,0.448-1,1-1s1,0.448,1,1v2C7,3.552,6.552,4,6,4z"/><path d="M11,7H9C8.448,7,8,6.552,8,6s0.448-1,1-1h2c0.552,0,1,0.448,1,1S11.552,7,11,7z"/><path d="M6,12c-0.552,0-1-0.448-1-1V9c0-0.552,0.448-1,1-1s1,0.448,1,1v2C7,11.552,6.552,12,6,12z"/><path d="M3,7H1C0.448,7,0,6.552,0,6s0.448-1,1-1h2c0.552,0,1,0.448,1,1S3.552,7,3,7z"/><path d="M55,52c-2.757,0-5-2.243-5-5s2.243-5,5-5s5,2.243,5,5S57.757,52,55,52z M55,44c-1.654,0-3,1.346-3,3s1.346,3,3,3   s3-1.346,3-3S56.654,44,55,44z"/><path d="M45.999,46c-0.448,0-0.855-0.303-0.969-0.757c-0.134-0.536,0.192-1.079,0.728-1.213l8-2   c0.535-0.133,1.079,0.192,1.213,0.728c0.134,0.536-0.192,1.079-0.728,1.213l-8,2C46.161,45.991,46.08,46,45.999,46z"/><path d="M49.001,56c-0.347,0-0.685-0.181-0.869-0.504c-0.274-0.479-0.107-1.09,0.372-1.364l7-4   c0.479-0.273,1.091-0.107,1.364,0.372c0.274,0.479,0.107,1.09-0.372,1.364l-7,4C49.34,55.958,49.169,56,49.001,56z"/><path d="M46,52c-0.383,0-0.749-0.222-0.914-0.594c-0.225-0.505,0.003-1.096,0.507-1.32l9-4c0.505-0.227,1.095,0.002,1.32,0.507   s-0.003,1.096-0.507,1.32l-9,4C46.274,51.973,46.136,52,46,52z"/><path d="M38,7c-0.219,0-0.44-0.072-0.624-0.219c-0.432-0.345-0.501-0.974-0.156-1.405l4-5c0.345-0.432,0.975-0.501,1.405-0.156   c0.432,0.345,0.501,0.974,0.156,1.405l-4,5C38.583,6.872,38.292,7,38,7z"/><path d="M23,8c-0.552,0-1-0.448-1-1V4c0-0.552,0.448-1,1-1s1,0.448,1,1v3C24,7.552,23.552,8,23,8z"/><path d="M27,9c-0.256,0-0.512-0.098-0.707-0.293c-0.391-0.391-0.391-1.023,0-1.414l3-3c0.391-0.391,1.023-0.391,1.414,0   s0.391,1.023,0,1.414l-3,3C27.512,8.902,27.256,9,27,9z"/><path d="M33,53c-0.552,0-1-0.448-1-1c0-3,0-3-3-3c-2.757,0-5-2.243-5-5c0-0.552,0.448-1,1-1s1,0.448,1,1c0,1.654,1.346,3,3,3   c3.704,0,5,0.41,5,5C34,52.552,33.552,53,33,53z"/></g><text x="0" y="75.021" fill="#000000" font-size="5px" font-weight="bold" font-family="'Helvetica Neue', Helvetica, Arial-Unicode, Arial, Sans-serif">Created by Prettycons</text><text x="0" y="80.021" fill="#000000" font-size="5px" font-weight="bold" font-family="'Helvetica Neue', Helvetica, Arial-Unicode, Arial, Sans-serif">from the Noun Project</text></svg>