<svg xmlns="http://www.w3.org/2000/svg" xmlns:xlink="http://www.w3.org/1999/xlink" version="1.1" x="0px" y="0px" viewBox="0 0 60 75" style="enable-background:new 0 0 60 60;" xml:space="preserve"><g><path d="M4,56c-0.222,0-0.444-0.074-0.627-0.221c-0.349-0.281-0.469-0.76-0.292-1.173l6-14c0.093-0.217,0.26-0.395,0.472-0.5l6-3   c0.31-0.155,0.678-0.138,0.973,0.044C16.821,37.332,17,37.653,17,38v12c0,0.552-0.448,1-1,1h-4.679l-6.739,4.814   C4.407,55.938,4.203,56,4,56z M10.775,41.73L6.327,52.109l4.092-2.923C10.588,49.065,10.792,49,11,49h4v-9.382L10.775,41.73z"/><path d="M7,60H1c-0.552,0-1-0.448-1-1v-4c0-0.552,0.448-1,1-1h6c0.552,0,1,0.448,1,1v4C8,59.552,7.552,60,7,60z M2,58h4v-2H2V58z"/><path d="M33,60h-6c-0.552,0-1-0.448-1-1v-4c0-0.552,0.448-1,1-1h6c0.552,0,1,0.448,1,1v4C34,59.552,33.552,60,33,60z M28,58h4v-2   h-4V58z"/><path d="M39,39H21c-0.552,0-1-0.448-1-1v-4c0-0.552,0.448-1,1-1h18c0.552,0,1,0.448,1,1v4C40,38.552,39.552,39,39,39z M22,37h16v-2   H22V37z"/><path d="M39,35H21c-0.36,0-0.693-0.194-0.87-0.507s-0.173-0.698,0.013-1.007l3-5C23.323,28.184,23.649,28,24,28h12   c0.351,0,0.677,0.184,0.857,0.485l3,5c0.186,0.309,0.19,0.694,0.013,1.007C39.693,34.806,39.36,35,39,35z M22.766,33h14.468l-1.8-3   H24.566L22.766,33z"/><path d="M10.999,51c-0.503,0-0.936-0.378-0.993-0.89l-1-9c-0.061-0.549,0.334-1.043,0.884-1.104   c0.548-0.068,1.043,0.334,1.104,0.883l1,9c0.061,0.549-0.334,1.043-0.884,1.104C11.073,50.998,11.036,51,10.999,51z"/><path d="M56,56c-0.203,0-0.407-0.062-0.581-0.186L48.68,51H44c-0.552,0-1-0.448-1-1V38c0-0.347,0.18-0.668,0.474-0.851   c0.295-0.182,0.664-0.199,0.973-0.044l6,3c0.211,0.106,0.379,0.283,0.472,0.5l6,14c0.177,0.413,0.058,0.892-0.292,1.173   C56.444,55.926,56.222,56,56,56z M45,49h4c0.208,0,0.412,0.065,0.581,0.186l4.092,2.923L49.225,41.73L45,39.618V49z"/><path d="M59,60h-6c-0.552,0-1-0.448-1-1v-4c0-0.552,0.448-1,1-1h6c0.552,0,1,0.448,1,1v4C60,59.552,59.552,60,59,60z M54,58h4v-2   h-4V58z"/><path d="M49.001,51c-0.037,0-0.074-0.002-0.112-0.006c-0.549-0.061-0.944-0.555-0.883-1.104l1-9   c0.061-0.549,0.559-0.945,1.104-0.883c0.549,0.061,0.944,0.555,0.883,1.104l-1,9C49.937,50.622,49.504,51,49.001,51z"/><path d="M44,51H16c-0.552,0-1-0.448-1-1V38c0-0.552,0.448-1,1-1h28c0.552,0,1,0.448,1,1v12C45,50.552,44.552,51,44,51z M17,49h26   V39H17V49z"/><path d="M34,30c-0.552,0-1-0.448-1-1s0.448-1,1-1c2.081,0,3.041-1.489,3.429-2.376c0.799-1.83,0.827-3.923,0.074-5.6   c-0.947-2.112-2.109-3.888-3.454-5.278c-1.088-1.125-2.537-1.73-4.076-1.726c-1.527,0.012-2.949,0.639-4.006,1.766   c-1.293,1.379-2.399,3.136-3.285,5.22c-0.748,1.759-0.724,3.807,0.067,5.618C23.447,27.223,24.51,28,26,28c0.552,0,1,0.448,1,1   s-0.448,1-1,1c-2.305,0-4.063-1.237-5.085-3.577c-1.01-2.312-1.036-4.937-0.074-7.2c0.978-2.301,2.212-4.253,3.667-5.805   c1.434-1.53,3.369-2.381,5.449-2.398c2.094-0.034,4.057,0.813,5.53,2.335c1.507,1.558,2.799,3.526,3.842,5.85   c0.993,2.215,0.969,4.846-0.066,7.218C38.27,28.696,36.352,30,34,30z"/><path d="M32,30h-4c-0.552,0-1-0.448-1-1V19c0-0.552,0.448-1,1-1h4c0.552,0,1,0.448,1,1v10C33,29.552,32.552,30,32,30z M29,28h2v-8   h-2V28z"/><path d="M22.001,27c-0.323,0-0.64-0.156-0.833-0.445c-0.306-0.459-0.182-1.081,0.277-1.387l6-4c0.459-0.308,1.08-0.183,1.387,0.277   c0.306,0.459,0.182,1.081-0.277,1.387l-6,4C22.384,26.946,22.191,27,22.001,27z"/><path d="M37.999,27c-0.19,0-0.383-0.054-0.554-0.168l-6-4c-0.459-0.306-0.584-0.927-0.277-1.387   c0.306-0.46,0.927-0.585,1.387-0.277l6,4c0.459,0.306,0.583,0.927,0.277,1.387C38.639,26.844,38.322,27,37.999,27z"/><path d="M24,47h-4c-0.552,0-1-0.448-1-1v-4c0-0.552,0.448-1,1-1h4c0.552,0,1,0.448,1,1v4C25,46.552,24.552,47,24,47z M21,45h2v-2   h-2V45z"/><path d="M40,47h-4c-0.552,0-1-0.448-1-1v-4c0-0.552,0.448-1,1-1h4c0.552,0,1,0.448,1,1v4C41,46.552,40.552,47,40,47z M37,45h2v-2   h-2V45z"/><path d="M25.999,51c-0.171,0-0.344-0.044-0.503-0.136c-0.477-0.278-0.638-0.891-0.36-1.368l7-12   c0.278-0.477,0.889-0.638,1.368-0.36c0.477,0.278,0.638,0.891,0.36,1.368l-7,12C26.678,50.822,26.343,51,25.999,51z"/><path d="M33.001,51c-0.344,0-0.679-0.178-0.865-0.496l-7-12c-0.278-0.477-0.117-1.089,0.36-1.368   c0.476-0.279,1.089-0.117,1.368,0.36l7,12c0.278,0.477,0.117,1.089-0.36,1.368C33.345,50.956,33.172,51,33.001,51z"/><path d="M38.114,20H22.049c-0.341,0-0.659-0.174-0.843-0.462c-0.184-0.288-0.208-0.649-0.064-0.959   c0.963-2.075,2.148-3.851,3.523-5.281c1.395-1.449,3.275-2.256,5.295-2.271c2.034-0.016,3.939,0.771,5.369,2.212   c1.423,1.435,2.663,3.226,3.685,5.323c0.151,0.31,0.132,0.676-0.051,0.968C38.779,19.822,38.459,20,38.114,20z M23.682,18h12.765   c-0.753-1.286-1.603-2.41-2.538-3.353c-1.047-1.056-2.457-1.658-3.934-1.62c-1.477,0.011-2.85,0.6-3.869,1.658   C25.207,15.62,24.394,16.731,23.682,18z"/><path d="M30,56c-0.552,0-1-0.448-1-1v-5c0-0.552,0.448-1,1-1s1,0.448,1,1v5C31,55.552,30.552,56,30,56z"/><path d="M18,33h-4c-0.552,0-1-0.448-1-1v-6c0-0.552,0.448-1,1-1h4c0.552,0,1,0.448,1,1v6C19,32.552,18.552,33,18,33z M15,31h2v-4   h-2V31z"/><path d="M21,35h-3c-0.552,0-1-0.448-1-1V24c0-0.552,0.448-1,1-1h3.253c0.492,0,0.911,0.358,0.988,0.844   c0.101,0.639,0.272,1.237,0.508,1.779c0.421,0.965,0.998,1.644,1.714,2.018C24.793,27.814,25,28.155,25,28.528V29   c0,0.181-0.049,0.359-0.143,0.515l-3,5C21.677,34.816,21.351,35,21,35z M19,33h1.434l2.413-4.021   c-0.805-0.603-1.452-1.459-1.931-2.555c-0.196-0.45-0.357-0.926-0.48-1.424H19V33z"/><path d="M14,30H8c-0.552,0-1-0.448-1-1s0.448-1,1-1h6c0.552,0,1,0.448,1,1S14.552,30,14,30z"/><path d="M10,32c-0.552,0-1-0.448-1-1v-4c0-0.552,0.448-1,1-1s1,0.448,1,1v4C11,31.552,10.552,32,10,32z"/><path d="M30,13c-0.552,0-1-0.448-1-1V5c0-0.552,0.448-1,1-1s1,0.448,1,1v7C31,12.552,30.552,13,30,13z"/><path d="M30.001,13c-0.304,0-0.604-0.138-0.801-0.4c-0.331-0.442-0.242-1.069,0.2-1.4l4-3c0.444-0.332,1.069-0.241,1.4,0.2   c0.332,0.442,0.242,1.069-0.2,1.4l-4,3C30.42,12.935,30.209,13,30.001,13z"/><path d="M29.999,13c-0.209,0-0.419-0.065-0.599-0.2l-4-3c-0.442-0.331-0.531-0.958-0.2-1.4c0.332-0.441,0.958-0.532,1.4-0.2l4,3   c0.442,0.331,0.531,0.958,0.2,1.4C30.604,12.862,30.303,13,29.999,13z"/><path d="M6,10.414L1.586,6L6,1.586L10.414,6L6,10.414z M4.414,6L6,7.586L7.586,6L6,4.414L4.414,6z"/><path d="M6,4C5.448,4,5,3.552,5,3V1c0-0.552,0.448-1,1-1s1,0.448,1,1v2C7,3.552,6.552,4,6,4z"/><path d="M11,7H9C8.448,7,8,6.552,8,6s0.448-1,1-1h2c0.552,0,1,0.448,1,1S11.552,7,11,7z"/><path d="M6,12c-0.552,0-1-0.448-1-1V9c0-0.552,0.448-1,1-1s1,0.448,1,1v2C7,11.552,6.552,12,6,12z"/><path d="M3,7H1C0.448,7,0,6.552,0,6s0.448-1,1-1h2c0.552,0,1,0.448,1,1S3.552,7,3,7z"/><path d="M54,32c-0.552,0-1-0.448-1-1c0-2.206-1.794-4-4-4c-0.552,0-1-0.448-1-1s0.448-1,1-1c2.206,0,4-1.794,4-4   c0-0.552,0.448-1,1-1s1,0.448,1,1c0,2.206,1.794,4,4,4c0.552,0,1,0.448,1,1s-0.448,1-1,1c-2.206,0-4,1.794-4,4   C55,31.552,54.552,32,54,32z M52.313,26c0.668,0.444,1.242,1.019,1.687,1.687c0.444-0.668,1.019-1.242,1.687-1.687   c-0.668-0.444-1.242-1.019-1.687-1.687C53.556,24.981,52.981,25.556,52.313,26z"/></g><text x="0" y="75" fill="#000000" font-size="5px" font-weight="bold" font-family="'Helvetica Neue', Helvetica, Arial-Unicode, Arial, Sans-serif">Created by Prettycons</text><text x="0" y="80" fill="#000000" font-size="5px" font-weight="bold" font-family="'Helvetica Neue', Helvetica, Arial-Unicode, Arial, Sans-serif">from the Noun Project</text></svg>