<svg xmlns="http://www.w3.org/2000/svg" xmlns:xlink="http://www.w3.org/1999/xlink" version="1.1" x="0px" y="0px" viewBox="0 0 60 75" style="enable-background:new 0 0 60 60;" xml:space="preserve"><g><path d="M30,60C13.458,60,0,46.542,0,30S13.458,0,30,0s30,13.458,30,30S46.542,60,30,60z M30,2C14.561,2,2,14.561,2,30   s12.561,28,28,28s28-12.561,28-28S45.439,2,30,2z"/><path d="M17,17h-6c-0.552,0-1-0.448-1-1s0.448-1,1-1h6c0.552,0,1,0.448,1,1S17.552,17,17,17z"/><path d="M15,27H7c-0.552,0-1-0.448-1-1s0.448-1,1-1h8c0.552,0,1,0.448,1,1S15.552,27,15,27z"/><path d="M54,27h-8c-0.552,0-1-0.448-1-1s0.448-1,1-1h8c0.552,0,1,0.448,1,1S54.552,27,54,27z"/><path d="M49,17h-6c-0.552,0-1-0.448-1-1s0.448-1,1-1h6c0.552,0,1,0.448,1,1S49.552,17,49,17z"/><path d="M37,17H23c-0.552,0-1-0.448-1-1s0.448-1,1-1h14c0.552,0,1,0.448,1,1S37.552,17,37,17z"/><path d="M37,7H23c-0.552,0-1-0.448-1-1s0.448-1,1-1h14c0.552,0,1,0.448,1,1S37.552,7,37,7z"/><path d="M45,12h-9c-0.552,0-1-0.448-1-1s0.448-1,1-1h9c0.552,0,1,0.448,1,1S45.552,12,45,12z"/><path d="M31,12H16c-0.552,0-1-0.448-1-1s0.448-1,1-1h15c0.552,0,1,0.448,1,1S31.552,12,31,12z"/><path d="M25,22h-9c-0.552,0-1-0.448-1-1s0.448-1,1-1h9c0.552,0,1,0.448,1,1S25.552,22,25,22z"/><path d="M45,22H30c-0.552,0-1-0.448-1-1s0.448-1,1-1h15c0.552,0,1,0.448,1,1S45.552,22,45,22z"/><path d="M25,45c-3.365,0-6-1.757-6-4s2.635-4,6-4s6,1.757,6,4S28.365,45,25,45z M25,39c-2.289,0-4,1.056-4,2s1.711,2,4,2   s4-1.056,4-2S27.289,39,25,39z"/><path d="M25,54c-3.18,0-5.964-1.12-7.74-2.06C16.099,51.325,14.828,51,13.584,51H9v-2h4.584c1.569,0,3.164,0.405,4.612,1.172   C19.771,51.006,22.23,52,25,52c2.77,0,5.229-0.994,6.804-1.828C33.252,49.405,34.847,49,36.416,49H51v2H36.416   c-1.244,0-2.515,0.325-3.676,0.94C30.964,52.88,28.18,54,25,54z"/><path d="M59,33H36.416c-1.569,0-3.164-0.405-4.612-1.172C30.229,30.994,27.77,30,25,30c-2.77,0-5.229,0.994-6.804,1.828   C16.748,32.595,15.153,33,13.584,33H1v-2h12.584c1.244,0,2.515-0.325,3.676-0.94C19.036,29.12,21.82,28,25,28   c3.18,0,5.964,1.12,7.74,2.06c1.161,0.615,2.432,0.94,3.676,0.94H59V33z"/><path d="M25,49c-2.219,0-4.349-0.63-5.996-1.775C17.852,46.423,16.507,46,15.115,46H4.613l-0.292-0.482   c-1.555-2.568-2.711-5.353-3.436-8.277L0.578,36h14.537c1.392,0,2.737-0.423,3.889-1.225C20.651,33.63,22.781,33,25,33   s4.349,0.63,5.996,1.775C32.148,35.577,33.493,36,34.885,36h24.537l-0.307,1.241c-0.725,2.924-1.881,5.709-3.436,8.277L55.387,46   H34.885c-1.392,0-2.737,0.423-3.889,1.225C29.349,48.37,27.219,49,25,49z M5.747,44h9.368c1.802,0,3.542,0.547,5.031,1.582   C21.461,46.497,23.185,47,25,47s3.539-0.503,4.854-1.418C31.343,44.547,33.083,44,34.885,44h19.368   c1.094-1.891,1.959-3.902,2.582-6h-21.95c-1.802,0-3.542-0.547-5.031-1.582C28.539,35.503,26.815,35,25,35   s-3.539,0.503-4.854,1.418C18.657,37.453,16.917,38,15.115,38H3.165C3.788,40.098,4.653,42.109,5.747,44z"/><path d="M44,42h-8c-0.552,0-1-0.448-1-1s0.448-1,1-1h8c0.552,0,1,0.448,1,1S44.552,42,44,42z"/><path d="M52,42h-3c-0.552,0-1-0.448-1-1s0.448-1,1-1h3c0.552,0,1,0.448,1,1S52.552,42,52,42z"/><path d="M40,27h-3c-0.552,0-1-0.448-1-1s0.448-1,1-1h3c0.552,0,1,0.448,1,1S40.552,27,40,27z"/><path d="M14,42H9c-0.552,0-1-0.448-1-1s0.448-1,1-1h5c0.552,0,1,0.448,1,1S14.552,42,14,42z"/></g><text x="0" y="75" fill="#000000" font-size="5px" font-weight="bold" font-family="'Helvetica Neue', Helvetica, Arial-Unicode, Arial, Sans-serif">Created by Prettycons</text><text x="0" y="80" fill="#000000" font-size="5px" font-weight="bold" font-family="'Helvetica Neue', Helvetica, Arial-Unicode, Arial, Sans-serif">from the Noun Project</text></svg>