<svg xmlns="http://www.w3.org/2000/svg" xmlns:xlink="http://www.w3.org/1999/xlink" version="1.1" x="0px" y="0px" viewBox="0 0 60 75" style="enable-background:new 0 0 60 60;" xml:space="preserve"><g><path d="M26,46H14c-0.552,0-1-0.448-1-1v-4c0-0.552,0.448-1,1-1h12c0.552,0,1,0.448,1,1v4C27,45.552,26.552,46,26,46z M15,44h10v-2   H15V44z"/><path d="M23,50h-8c-0.552,0-1-0.448-1-1v-4c0-0.552,0.448-1,1-1h8c0.552,0,1,0.448,1,1v4C24,49.552,23.552,50,23,50z M16,48h6v-2   h-6V48z"/><path d="M22,19h-6c-0.552,0-1-0.448-1-1c0-3.991,1.72-7,4-7s4,3.009,4,7C23,18.552,22.552,19,22,19z M17.044,17h3.912   c-0.222-2.471-1.233-4-1.956-4S17.266,14.529,17.044,17z"/><path d="M34,46h-8c-0.552,0-1-0.448-1-1v-3H14c-0.552,0-1-0.448-1-1v-0.378c0-1.964,0.865-3.812,2.374-5.068l6.145-5.121   C23.731,28.59,25,25.881,25,23c0-0.442,0.027-10.875,2.375-14.55C27.955,7.542,28.936,7,30,7c1.063,0,2.044,0.542,2.625,1.45   C34.973,12.125,35,22.558,35,23c0,2.88,1.269,5.589,3.481,7.433l6.145,5.121C46.135,36.81,47,38.658,47,40.622V41   c0,0.552-0.448,1-1,1H35v3C35,45.552,34.552,46,34,46z M27,44h6v-3c0-0.552,0.448-1,1-1h10.958   c-0.153-1.131-0.722-2.168-1.612-2.911l0,0l-6.145-5.121C34.531,29.745,33,26.476,33,23c0-2.852-0.372-10.831-2.061-13.473   c-0.422-0.66-1.458-0.66-1.879,0C27.372,12.17,27,20.149,27,23c0,3.476-1.531,6.745-4.201,8.969l-6.145,5.121   c-0.891,0.742-1.459,1.779-1.612,2.911H26c0.552,0,1,0.448,1,1V44z"/><path d="M46,46H34c-0.552,0-1-0.448-1-1v-4c0-0.552,0.448-1,1-1h12c0.552,0,1,0.448,1,1v4C47,45.552,46.552,46,46,46z M35,44h10v-2   H35V44z"/><path d="M45,50h-8c-0.552,0-1-0.448-1-1v-4c0-0.552,0.448-1,1-1h8c0.552,0,1,0.448,1,1v4C46,49.552,45.552,50,45,50z M38,48h6v-2   h-6V48z"/><path d="M44,19h-6c-0.552,0-1-0.448-1-1c0-3.991,1.72-7,4-7s4,3.009,4,7C45,18.552,44.552,19,44,19z M39.044,17h3.912   c-0.222-2.471-1.233-4-1.956-4S39.266,14.529,39.044,17z"/><path d="M33,52h-6c-0.552,0-1-0.448-1-1v-6c0-0.552,0.448-1,1-1h6c0.552,0,1,0.448,1,1v6C34,51.552,33.552,52,33,52z M28,50h4v-4   h-4V50z"/><path d="M26,42c-0.552,0-1-0.448-1-1v-8c0-0.552,0.448-1,1-1s1,0.448,1,1v8C27,41.552,26.552,42,26,42z"/><path d="M34,42c-0.552,0-1-0.448-1-1v-8c0-0.552,0.448-1,1-1s1,0.448,1,1v8C35,41.552,34.552,42,34,42z"/><path d="M44,37.335c-0.223,0-0.444-0.075-0.625-0.219c-0.015-0.012-0.033-0.027-0.05-0.042l-5.966-4.971   c-0.228-0.19-0.36-0.471-0.36-0.768V18c0-0.552,0.448-1,1-1h6c0.552,0,1,0.448,1,1v18.334c0,0.384-0.22,0.735-0.567,0.901   C44.295,37.302,44.147,37.335,44,37.335z M39,30.865l4,3.333V19h-4V30.865z"/><path d="M16,37.335c-0.147,0-0.295-0.033-0.433-0.099C15.22,37.07,15,36.719,15,36.335V18c0-0.552,0.448-1,1-1h6   c0.552,0,1,0.448,1,1v13.333c0,0.297-0.132,0.578-0.36,0.768l-5.966,4.972c-0.017,0.015-0.034,0.03-0.049,0.042   C16.444,37.26,16.223,37.335,16,37.335z M17,19v15.198l4-3.333V19H17z"/><path d="M22,32.334c-0.144,0-0.288-0.031-0.423-0.094C21.225,32.075,21,31.722,21,31.334V12c0-6.268,3.678-8.973,8.485-11.857   c0.317-0.19,0.712-0.19,1.029,0C35.322,3.028,39,5.732,39,12v19.333c0,0.388-0.225,0.741-0.576,0.906   c-0.351,0.164-0.767,0.11-1.064-0.138L37.2,31.969C34.531,29.745,33,26.476,33,23c0-2.852-0.372-10.831-2.061-13.473   c-0.422-0.659-1.458-0.66-1.879,0C27.372,12.17,27,20.149,27,23c0,3.475-1.531,6.743-4.2,8.968l-0.159,0.133   C22.458,32.254,22.23,32.334,22,32.334z M30,7c1.063,0,2.044,0.542,2.625,1.45C34.973,12.125,35,22.558,35,23   c0,2.158,0.712,4.22,2,5.894V12c0-4.658-2.165-6.874-7-9.831C25.165,5.127,23,7.342,23,12v16.893c1.288-1.673,2-3.735,2-5.893   c0-0.442,0.027-10.875,2.375-14.55C27.955,7.542,28.936,7,30,7z"/><path d="M30,60c-1.71,0-3-2.149-3-5s1.29-5,3-5s3,2.149,3,5S31.71,60,30,60z M30,52c-0.249,0-1,1.064-1,3s0.751,3,1,3s1-1.064,1-3   S30.249,52,30,52z"/><path d="M33.694,18h-7.389c-0.282,0-0.55-0.119-0.74-0.327c-0.19-0.208-0.283-0.487-0.256-0.768   c0.146-1.528,0.339-2.907,0.573-4.098C25.975,12.338,26.386,12,26.864,12h6.272c0.478,0,0.889,0.338,0.981,0.807   c0.234,1.187,0.427,2.565,0.573,4.098c0.027,0.281-0.066,0.56-0.256,0.768C34.245,17.882,33.976,18,33.694,18z M27.417,16h5.167   c-0.083-0.711-0.177-1.38-0.281-2h-4.604C27.594,14.622,27.5,15.29,27.417,16z"/><path d="M23,54c-3,0-3-3.13-3-5c0-0.552,0.448-1,1-1s1,0.448,1,1c0,3,0.441,3,1,3c0.552,0,1,0.448,1,1S23.552,54,23,54z"/><path d="M21,60H1c-0.552,0-1-0.448-1-1v-6.872c0-2.01,1.431-3.761,3.329-4.073c1.624-0.265,3.162,0.451,4.005,1.729   C8.125,49.277,9.046,49,10,49c1.87,0,3.568,1.03,4.434,2.688c0.147,0.28,0.448,0.304,0.525,0.295   c0.104-0.002,0.358-0.033,0.481-0.289C15.801,50.945,16,49.988,16,49c0-0.552,0.448-1,1-1s1,0.448,1,1   c0,1.3-0.262,2.532-0.758,3.562c-0.414,0.861-1.277,1.405-2.251,1.421c-0.972,0.004-1.881-0.509-2.33-1.369   C12.142,51.618,11.122,51,10,51c-0.876,0-1.71,0.397-2.289,1.088c-0.248,0.298-0.644,0.425-1.02,0.326   c-0.375-0.098-0.659-0.403-0.73-0.783c-0.202-1.079-1.218-1.787-2.308-1.603C2.71,50.184,2,51.087,2,52.129V58h19   c0.552,0,1,0.448,1,1S21.552,60,21,60z"/><path d="M37,54c-0.552,0-1-0.448-1-1s0.448-1,1-1c0.559,0,1,0,1-3c0-0.552,0.448-1,1-1s1,0.448,1,1C40,50.87,40,54,37,54z"/><path d="M59,60H39c-0.552,0-1-0.448-1-1s0.448-1,1-1h19v-5.872c0-1.042-0.71-1.945-1.653-2.1c-1.091-0.184-2.107,0.523-2.309,1.603   c-0.071,0.38-0.355,0.686-0.73,0.783c-0.374,0.099-0.771-0.028-1.02-0.326C51.71,51.397,50.875,51,50,51   c-1.122,0-2.142,0.618-2.662,1.614c-0.449,0.86-1.345,1.37-2.33,1.369c-0.974-0.016-1.837-0.56-2.251-1.421   C42.262,51.532,42,50.301,42,49c0-0.552,0.448-1,1-1s1,0.448,1,1c0,0.988,0.199,1.945,0.56,2.695   c0.123,0.255,0.378,0.287,0.481,0.289c0.086,0.006,0.378-0.015,0.525-0.295C46.432,50.03,48.13,49,50,49   c0.954,0,1.875,0.277,2.667,0.785c0.843-1.279,2.383-1.993,4.005-1.73C58.569,48.367,60,50.119,60,52.129V59   C60,59.552,59.552,60,59,60z"/><path d="M6,10.414L1.586,6L6,1.586L10.414,6L6,10.414z M4.414,6L6,7.586L7.586,6L6,4.414L4.414,6z"/><path d="M6,4C5.448,4,5,3.552,5,3V1c0-0.552,0.448-1,1-1s1,0.448,1,1v2C7,3.552,6.552,4,6,4z"/><path d="M11,7H9C8.448,7,8,6.552,8,6s0.448-1,1-1h2c0.552,0,1,0.448,1,1S11.552,7,11,7z"/><path d="M6,12c-0.552,0-1-0.448-1-1V9c0-0.552,0.448-1,1-1s1,0.448,1,1v2C7,11.552,6.552,12,6,12z"/><path d="M3,7H1C0.448,7,0,6.552,0,6s0.448-1,1-1h2c0.552,0,1,0.448,1,1S3.552,7,3,7z"/><path d="M54,36c-0.552,0-1-0.448-1-1c0-2.206-1.794-4-4-4c-0.552,0-1-0.448-1-1s0.448-1,1-1c2.206,0,4-1.794,4-4   c0-0.552,0.448-1,1-1s1,0.448,1,1c0,2.206,1.794,4,4,4c0.552,0,1,0.448,1,1s-0.448,1-1,1c-2.206,0-4,1.794-4,4   C55,35.552,54.552,36,54,36z M52.313,30c0.668,0.444,1.242,1.019,1.687,1.687c0.444-0.668,1.019-1.242,1.687-1.687   c-0.668-0.444-1.242-1.019-1.687-1.687C53.556,28.982,52.981,29.556,52.313,30z"/></g><text x="0" y="75" fill="#000000" font-size="5px" font-weight="bold" font-family="'Helvetica Neue', Helvetica, Arial-Unicode, Arial, Sans-serif">Created by Prettycons</text><text x="0" y="80" fill="#000000" font-size="5px" font-weight="bold" font-family="'Helvetica Neue', Helvetica, Arial-Unicode, Arial, Sans-serif">from the Noun Project</text></svg>