<svg xmlns="http://www.w3.org/2000/svg" xmlns:xlink="http://www.w3.org/1999/xlink" version="1.1" x="0px" y="0px" viewBox="0 0 60 75" style="enable-background:new 0 0 60 60;" xml:space="preserve"><g><path d="M30,60C13.458,60,0,46.542,0,30S13.458,0,30,0c16.542,0,30,13.458,30,30S46.542,60,30,60z M30,2C14.561,2,2,14.561,2,30   s12.561,28,28,28s28-12.561,28-28S45.439,2,30,2z"/><path d="M10.999,43c-0.481,0-0.905-0.348-0.986-0.837c-0.09-0.545,0.279-1.06,0.824-1.149c4.879-0.804,8.288-2.336,10.422-4.686   c0.372-0.409,1.004-0.439,1.413-0.068c0.409,0.372,0.439,1.004,0.068,1.413c-2.449,2.696-6.236,4.435-11.578,5.314   C11.107,42.996,11.053,43,10.999,43z"/><path d="M24,32c-0.13,0-0.262-0.026-0.389-0.08c-0.509-0.215-0.747-0.802-0.531-1.311c1.216-2.875,0.609-6.357-0.056-9.396   c-0.118-0.54,0.224-1.073,0.763-1.191c0.54-0.118,1.072,0.224,1.19,0.763c0.731,3.34,1.389,7.188-0.056,10.604   C24.76,31.771,24.389,32,24,32z"/><path d="M22,16c-0.38,0-0.744-0.219-0.911-0.588c-1.433-3.164-3.403-6.49-6.021-10.169c-0.32-0.45-0.215-1.075,0.235-1.395   c0.449-0.32,1.074-0.215,1.395,0.235c2.694,3.786,4.727,7.222,6.214,10.504c0.228,0.503,0.005,1.096-0.498,1.324   C22.279,15.972,22.139,16,22,16z"/><path d="M11.47,35.686c-1.254,0-2.497-0.311-3.632-0.922c-1.807-0.973-3.126-2.591-3.716-4.557   c-0.487-1.623-0.313-3.339,0.491-4.832c0.804-1.492,2.14-2.582,3.764-3.069c1.35-0.405,2.777-0.26,4.018,0.408   c1.241,0.668,2.147,1.78,2.552,3.13c0.339,1.131,0.218,2.326-0.342,3.366c-0.56,1.04-1.491,1.799-2.622,2.139   c-1.975,0.592-4.061-0.532-4.653-2.506C7.171,28.314,7.471,27.757,8,27.598c0.529-0.156,1.087,0.142,1.245,0.671   c0.275,0.917,1.244,1.438,2.163,1.164c0.619-0.186,1.129-0.602,1.436-1.171s0.373-1.224,0.187-1.843   c-0.251-0.838-0.814-1.529-1.585-1.943c-0.77-0.415-1.656-0.505-2.495-0.253c-1.112,0.333-2.027,1.08-2.577,2.102   s-0.67,2.197-0.336,3.309c0.436,1.454,1.412,2.651,2.749,3.37c1.336,0.72,2.873,0.876,4.326,0.439   c1.802-0.541,3.383-2.002,4.338-4.011c0.948-1.996,1.164-4.234,0.592-6.144c-0.699-2.331-2.533-4.365-5.03-5.581   c-2.477-1.205-5.292-1.479-7.725-0.749c-0.528,0.157-1.086-0.141-1.245-0.671c-0.159-0.529,0.141-1.086,0.67-1.245   c6.215-1.864,13.481,1.792,15.245,7.671c0.713,2.377,0.458,5.139-0.701,7.576c-1.197,2.519-3.227,4.366-5.57,5.069   C12.957,35.577,12.211,35.686,11.47,35.686z"/><path d="M48.001,34c-0.095,0-0.192-0.014-0.288-0.042c-2.008-0.603-3.654-1.262-5.182-2.075c-0.488-0.26-0.672-0.865-0.413-1.353   c0.259-0.487,0.865-0.672,1.353-0.413c1.409,0.75,2.939,1.361,4.818,1.925c0.529,0.159,0.829,0.716,0.67,1.246   C48.828,33.721,48.431,34,48.001,34z"/><path d="M39,29c-0.222,0-0.445-0.074-0.631-0.225c-2.937-2.392-5.704-4.831-7.282-8.368c-0.225-0.504,0.001-1.095,0.506-1.32   c0.504-0.227,1.095,0.001,1.32,0.506c1.401,3.139,3.871,5.313,6.718,7.632c0.428,0.349,0.493,0.979,0.144,1.407   C39.578,28.874,39.29,29,39,29z"/><path d="M29.999,15c-0.465,0-0.882-0.326-0.979-0.8c-0.442-2.163-0.275-4.158-0.099-6.27l0.082-1.006   c0.042-0.551,0.517-0.969,1.073-0.921c0.551,0.042,0.963,0.522,0.921,1.073l-0.083,1.021c-0.164,1.965-0.319,3.82,0.065,5.703   c0.11,0.541-0.239,1.069-0.78,1.18C30.133,14.994,30.065,15,29.999,15z"/><path d="M26.675,59.812c-0.137,0-0.277-0.029-0.41-0.089c-0.503-0.227-0.728-0.819-0.501-1.322   c2.879-6.388,6.942-10.713,11.75-12.508c4.528-1.691,9.728-1.206,15.453,1.438c0.501,0.231,0.72,0.826,0.488,1.327   c-0.232,0.502-0.826,0.721-1.327,0.488c-5.223-2.412-9.904-2.877-13.915-1.379c-5.429,2.027-8.775,7.349-10.626,11.456   C27.421,59.592,27.056,59.812,26.675,59.812z"/><path d="M36,13.999c-0.001,0-0.002,0-0.002,0C35.447,13.997,35,13.551,35,13c0-0.211,0.045-5.231,3.959-10.878   c0.315-0.453,0.938-0.566,1.392-0.252c0.454,0.314,0.567,0.938,0.252,1.392C37.066,8.364,37,12.957,37,13.002   C36.997,13.553,36.55,13.999,36,13.999z"/><path d="M56.552,31.047c-8.346,0-12.19-5.221-12.364-5.464c-0.322-0.449-0.218-1.074,0.23-1.396   c0.449-0.321,1.071-0.218,1.394,0.228c0.172,0.236,4.162,5.559,13.057,4.49c0.545-0.065,1.046,0.325,1.112,0.874   s-0.325,1.046-0.874,1.112C58.212,30.998,57.361,31.047,56.552,31.047z"/><path d="M39.999,42c-0.15,0-0.303-0.034-0.446-0.105c-0.494-0.247-0.694-0.848-0.447-1.342c0.047-0.094,1.184-2.313,4.023-3.191   c2.636-0.815,5.782-0.221,9.357,1.765c0.482,0.268,0.657,0.877,0.388,1.36c-0.268,0.482-0.876,0.657-1.36,0.388   c-3.079-1.71-5.701-2.247-7.794-1.602c-2,0.619-2.818,2.16-2.826,2.175C40.719,41.798,40.366,42,39.999,42z"/><path d="M19.962,48.539c-0.359,0-0.706-0.194-0.885-0.534c-0.257-0.489-0.07-1.094,0.418-1.351   c2.796-1.473,5.966-2.365,9.423-2.651c0.544-0.046,1.033,0.363,1.079,0.914s-0.364,1.034-0.914,1.079   c-3.187,0.263-6.099,1.08-8.655,2.427C20.279,48.502,20.119,48.539,19.962,48.539z"/><path d="M14.119,54.037l-0.921-0.399l-0.835-0.557c0.526-0.967,1.022-1.88,1.93-2.789c0.39-0.391,1.024-0.39,1.414,0   c0.391,0.391,0.391,1.024,0,1.415C15.004,52.411,14.613,53.128,14.119,54.037z M13.198,53.638h0.01H13.198z"/><path d="M31.109,39c-0.34,0-0.671-0.173-0.858-0.485c-0.284-0.474-0.131-1.088,0.343-1.372c1.355-0.813,2.146-1.757,2.352-2.807   c0.285-1.455-0.628-2.723-0.637-2.735c-0.332-0.442-0.242-1.069,0.2-1.4c0.444-0.333,1.069-0.241,1.4,0.2   c0.06,0.08,1.459,1.979,1,4.32c-0.319,1.628-1.424,3.021-3.285,4.137C31.461,38.954,31.284,39,31.109,39z"/><path d="M53.548,21.268c-3.829,0-6.664-1.093-8.452-3.267c-3.92-4.765-1.159-12.816-1.039-13.157   c0.183-0.521,0.753-0.797,1.273-0.612c0.521,0.182,0.795,0.752,0.614,1.274c-0.025,0.073-2.508,7.337,0.7,11.228   c1.835,2.227,5.273,2.991,10.213,2.276c0.548-0.077,1.054,0.3,1.133,0.846c0.079,0.547-0.3,1.054-0.846,1.133   C55.862,21.175,54.662,21.268,53.548,21.268z"/></g><text x="0" y="75" fill="#000000" font-size="5px" font-weight="bold" font-family="'Helvetica Neue', Helvetica, Arial-Unicode, Arial, Sans-serif">Created by Prettycons</text><text x="0" y="80" fill="#000000" font-size="5px" font-weight="bold" font-family="'Helvetica Neue', Helvetica, Arial-Unicode, Arial, Sans-serif">from the Noun Project</text></svg>