<svg xmlns="http://www.w3.org/2000/svg" xmlns:xlink="http://www.w3.org/1999/xlink" version="1.1" x="0px" y="0px" viewBox="0 0 60 75" style="enable-background:new 0 0 60 60;" xml:space="preserve"><g><path d="M26.64,13.05c-0.552,0-1.104-0.005-1.655-0.013c-0.552-0.008-0.993-0.462-0.985-1.015c0.008-0.547,0.454-0.985,1-0.985   c0.005,0,0.01,0,0.015,0c6.522,0.088,13.196-0.273,17.764-3.572c0.448-0.324,1.073-0.222,1.396,0.225   c0.323,0.448,0.223,1.073-0.225,1.396C39.314,12.434,32.974,13.05,26.64,13.05z"/><path d="M25.417,20.876c-0.872,0-1.73-0.021-2.588-0.063c-0.551-0.027-0.977-0.496-0.95-1.048c0.027-0.551,0.5-0.968,1.048-0.95   c3.841,0.188,7.708-0.054,12.931-0.805c0.546-0.078,1.054,0.301,1.132,0.847c0.079,0.547-0.301,1.054-0.847,1.132   C31.941,20.594,28.586,20.876,25.417,20.876z"/><path d="M43,19c-0.433,0-0.831-0.283-0.959-0.719c-0.156-0.53,0.148-1.085,0.678-1.241c1.561-0.458,4.08-1.745,5.673-3.229   c0.403-0.377,1.037-0.354,1.413,0.05c0.376,0.404,0.354,1.037-0.05,1.413c-1.837,1.712-4.647,3.15-6.474,3.685   C43.188,18.987,43.093,19,43,19z"/><path d="M28.487,28.029c-4.578,0-8.411-0.778-12.781-1.665l-1.902-0.383c-0.542-0.108-0.893-0.634-0.786-1.176   c0.107-0.542,0.633-0.89,1.176-0.786l1.909,0.385c4.729,0.96,8.816,1.791,13.858,1.597c0.567-0.028,1.017,0.41,1.038,0.961   c0.021,0.552-0.41,1.017-0.961,1.038C29.511,28.019,28.995,28.029,28.487,28.029z"/><path d="M36.999,28c-0.514,0-0.95-0.393-0.995-0.914c-0.048-0.55,0.36-1.035,0.91-1.082c2.888-0.25,4.561-0.859,6.639-1.898   c0.495-0.248,1.095-0.046,1.342,0.447c0.247,0.494,0.047,1.095-0.447,1.342c-2.245,1.123-4.169,1.826-7.361,2.102   C37.057,27.999,37.028,28,36.999,28z"/><path d="M7,32c-0.145,0-0.292-0.031-0.432-0.098c-0.357-0.171-0.713-0.321-1.064-0.47C4.45,30.986,3.36,30.525,2.328,29.59   c-0.409-0.371-0.44-1.003-0.069-1.413c0.371-0.409,1.003-0.441,1.413-0.069c0.78,0.708,1.628,1.066,2.61,1.481   c0.38,0.161,0.764,0.323,1.15,0.508c0.498,0.238,0.708,0.835,0.47,1.334C7.73,31.791,7.372,32,7,32z"/><path d="M26.18,37.008c-0.388,0-0.785-0.003-1.194-0.008c-0.552-0.008-0.994-0.461-0.986-1.014   c0.008-0.553,0.509-1.005,1.014-0.986c4.765,0.065,7.936-0.266,12.84-0.989c0.548-0.08,1.055,0.297,1.135,0.843   s-0.297,1.055-0.843,1.135C33.552,36.667,30.439,37.008,26.18,37.008z"/><path d="M46,34c-0.38,0-0.744-0.218-0.911-0.587c-0.228-0.503-0.005-1.095,0.498-1.323c2.708-1.228,5.048-2.913,6.589-4.745   c0.355-0.422,0.986-0.478,1.409-0.122c0.423,0.355,0.477,0.986,0.122,1.409c-2.216,2.635-5.189,4.325-7.294,5.279   C46.279,33.972,46.139,34,46,34z"/><path d="M18,36c-3.75,0-6.501-2.123-6.617-2.213c-0.435-0.341-0.511-0.969-0.17-1.404c0.34-0.435,0.968-0.511,1.402-0.172   C12.651,32.24,14.969,34,18,34c0.552,0,1,0.448,1,1S18.552,36,18,36z"/><path d="M10,43c-0.098,0-0.197-0.015-0.294-0.045c-0.73-0.225-1.522-0.589-2.288-0.942c-0.502-0.231-0.999-0.461-1.458-0.639   c-0.515-0.199-0.771-0.778-0.572-1.293c0.199-0.516,0.78-0.772,1.293-0.572c0.496,0.191,1.032,0.438,1.574,0.688   c0.706,0.326,1.436,0.662,2.039,0.848c0.528,0.162,0.824,0.722,0.662,1.25C10.824,42.724,10.428,43,10,43z"/><path d="M24.001,45c-0.019,0-0.037,0-0.056-0.001l-1.447-0.075c-2.702-0.135-4.654-0.233-7.726-0.95   c-0.538-0.125-0.872-0.663-0.746-1.201c0.125-0.537,0.662-0.874,1.201-0.746c2.897,0.676,4.677,0.765,7.371,0.9l1.457,0.075   c0.552,0.03,0.974,0.502,0.944,1.053C24.969,44.588,24.528,45,24.001,45z"/><path d="M30.999,45c-0.53,0-0.973-0.417-0.998-0.953c-0.026-0.552,0.4-1.02,0.952-1.046c2.806-0.132,4.788-0.38,7.854-0.982   c0.543-0.105,1.067,0.247,1.174,0.789c0.106,0.542-0.247,1.068-0.789,1.174c-3.136,0.615-5.267,0.882-8.146,1.018   C31.031,45,31.015,45,30.999,45z"/><path d="M44,43c-0.445,0-0.851-0.299-0.968-0.75c-0.138-0.535,0.184-1.08,0.718-1.218c0.576-0.149,1.13-0.277,1.677-0.403   c1.275-0.294,2.48-0.573,3.833-1.091c0.515-0.197,1.094,0.06,1.292,0.577c0.197,0.516-0.061,1.094-0.577,1.292   c-1.482,0.567-2.812,0.875-4.099,1.171c-0.531,0.123-1.068,0.246-1.627,0.391C44.166,42.99,44.082,43,44,43z"/><path d="M4,55c-2.206,0-4-1.794-4-4s1.794-4,4-4s4,1.794,4,4S6.206,55,4,55z M4,49c-1.103,0-2,0.897-2,2s0.897,2,2,2s2-0.897,2-2   S5.103,49,4,49z"/><path d="M54,60c-3.309,0-6-2.691-6-6s2.691-6,6-6s6,2.691,6,6S57.309,60,54,60z M54,50c-2.206,0-4,1.794-4,4s1.794,4,4,4   s4-1.794,4-4S56.206,50,54,50z"/><path d="M13,26C5.832,26,0,20.168,0,13S5.832,0,13,0s13,5.832,13,13S20.168,26,13,26z M13,2C6.935,2,2,6.935,2,13s4.935,11,11,11   s11-4.935,11-11S19.065,2,13,2z"/><path d="M28.005,54C13.672,54,2.011,42.336,2.011,28c0-2.48,0.355-4.948,1.056-7.334c0.103-0.349,0.386-0.615,0.741-0.694   c0.357-0.081,0.725,0.041,0.967,0.312C6.867,22.646,9.866,24,13,24c6.065,0,11-4.935,11-11c0-3.138-1.357-6.138-3.722-8.231   c-0.272-0.241-0.393-0.611-0.313-0.966s0.345-0.639,0.694-0.742C23.048,2.357,25.52,2,28.005,2C42.339,2,54,13.664,54,28   S42.339,54,28.005,54z M4.564,22.875C4.197,24.559,4.011,26.276,4.011,28c0,13.233,10.764,24,23.995,24S52,41.233,52,28   S41.236,4,28.005,4c-1.728,0-3.449,0.187-5.137,0.557C24.876,6.9,26,9.893,26,13c0,7.168-5.832,13-13,13   C9.896,26,6.907,24.878,4.564,22.875z"/><path d="M15,21c-2.206,0-4-1.794-4-4s1.794-4,4-4s4,1.794,4,4S17.206,21,15,21z M15,15c-1.103,0-2,0.897-2,2s0.897,2,2,2   s2-0.897,2-2S16.103,15,15,15z"/><path d="M9,7C6.91,7,5.203,5.423,5.028,3.331C4.999,2.98,5.156,2.64,5.442,2.435C7.136,1.222,9.123,0.428,11.19,0.14   c0.346-0.051,0.697,0.089,0.917,0.363C12.691,1.229,13,2.092,13,3C13,5.206,11.206,7,9,7z M7.14,3.703C7.422,4.47,8.147,5,9,5   c1.103,0,2-0.897,2-2c0-0.298-0.068-0.557-0.163-0.772C9.527,2.49,8.268,2.992,7.14,3.703z"/><path d="M6,16c-0.552,0-1-0.448-1-1s0.448-1,1-1c0.551,0,1-0.449,1-1c0-0.552,0.448-1,1-1s1,0.448,1,1C9,14.654,7.654,16,6,16z"/><path d="M18,10c-1.654,0-3-1.346-3-3c0-0.552,0.448-1,1-1s1,0.448,1,1c0,0.551,0.449,1,1,1c0.552,0,1,0.448,1,1S18.552,10,18,10z"/><path d="M54,10.414L49.586,6L54,1.586L58.414,6L54,10.414z M52.414,6L54,7.586L55.586,6L54,4.414L52.414,6z"/><path d="M54,4c-0.552,0-1-0.448-1-1V1c0-0.552,0.448-1,1-1s1,0.448,1,1v2C55,3.552,54.552,4,54,4z"/><path d="M59,7h-2c-0.552,0-1-0.448-1-1s0.448-1,1-1h2c0.552,0,1,0.448,1,1S59.552,7,59,7z"/><path d="M54,12c-0.552,0-1-0.448-1-1V9c0-0.552,0.448-1,1-1s1,0.448,1,1v2C55,11.552,54.552,12,54,12z"/><path d="M51,7h-2c-0.552,0-1-0.448-1-1s0.448-1,1-1h2c0.552,0,1,0.448,1,1S51.552,7,51,7z"/></g><text x="0" y="75" fill="#000000" font-size="5px" font-weight="bold" font-family="'Helvetica Neue', Helvetica, Arial-Unicode, Arial, Sans-serif">Created by Prettycons</text><text x="0" y="80" fill="#000000" font-size="5px" font-weight="bold" font-family="'Helvetica Neue', Helvetica, Arial-Unicode, Arial, Sans-serif">from the Noun Project</text></svg>